<?xml version="1.0" encoding="utf-8"?>
<!-- Generator: Adobe Illustrator 27.2.0, SVG Export Plug-In . SVG Version: 6.00 Build 0)  -->
<svg version="1.1" baseProfile="tiny" id="Capa_1" xmlns="http://www.w3.org/2000/svg" xmlns:xlink="http://www.w3.org/1999/xlink"
	 x="0px" y="0px" viewBox="0 0 206 206" overflow="visible" xml:space="preserve">
<g>
	<rect fill="#FFFFFF" width="206" height="206"/>
	<g>
		<path fill="#FFFFFF" d="M0,0"/>
		<path d="M6.4,9.7L6.4,9.7L6.4,9.7c0.6,0,1.1,0.5,1.1,1.1l0,0l0,0c0,0.6-0.5,1.1-1.1,1.1l0,0l0,0c-0.6,0-1.1-0.5-1.1-1.1l0,0l0,0
			C5.4,10.2,5.9,9.7,6.4,9.7z"/>
	</g>
	<g>
		<path d="M0,0"/>
		<path d="M14.9,10L14.9,10L14.9,10c0.2,0,0.4,0.2,0.4,0.4l0,0l0,0l0,0c0,0.2-0.2,0.4-0.4,0.4l0,0l0,0c-0.2,0-0.4-0.2-0.4-0.4l0,0
			l0,0C14.5,10.2,14.7,10,14.9,10L14.9,10z"/>
	</g>
	<g>
		<path d="M0,0"/>
		<path d="M23.6,9.1L23.6,9.1L23.6,9.1c1,0,1.8,0.8,1.8,1.8l0,0l0,0l0,0c0,1-0.8,1.8-1.8,1.8l0,0l0,0l0,0c-1,0-1.8-0.8-1.8-1.8l0,0
			l0,0l0,0C21.8,9.9,22.6,9.1,23.6,9.1L23.6,9.1z"/>
	</g>
	<g>
		<path d="M0,0"/>
		<path d="M38.6,8.6L38.6,8.6L38.6,8.6c1.3,0,2.3,1,2.3,2.3l0,0l0,0l0,0c0,1.3-1,2.3-2.3,2.3l0,0l0,0l0,0c-1.3,0-2.3-1-2.3-2.3l0,0
			l0,0l0,0C36.3,9.6,37.3,8.6,38.6,8.6L38.6,8.6z"/>
	</g>
	<g>
		<path d="M0,0"/>
		<path d="M46.3,6.9L46.3,6.9L46.3,6.9c1.7,0,3,1.4,3,3l0,0l0,0l0,0c0,1.7-1.4,3-3,3l0,0l0,0c-1.7,0-3-1.4-3-3l0,0l0,0
			C43.3,8.2,44.6,6.9,46.3,6.9z"/>
	</g>
	<g>
		<path d="M0,0"/>
		<path d="M54.7,8L54.7,8L54.7,8c1.9,0,3.4,1.5,3.4,3.4l0,0l0,0l0,0c0,1.9-1.5,3.4-3.4,3.4l0,0l0,0l0,0c-1.9,0-3.4-1.5-3.4-3.4l0,0
			l0,0l0,0C51.3,9.5,52.8,8,54.7,8L54.7,8z"/>
	</g>
	<g>
		<path d="M0,0"/>
		<path d="M62.6,8L62.6,8L62.6,8c1.2,0,2.1,0.9,2.1,2.1l0,0l0,0c0,1.2-0.9,2.1-2.1,2.1l0,0l0,0c-1.2,0-2.1-0.9-2.1-2.1l0,0l0,0
			C60.5,8.9,61.4,8,62.6,8z"/>
	</g>
	<g>
		<path d="M0,0"/>
		<path d="M70,10.3L70,10.3L70,10.3c0.6,0,1,0.4,1,1l0,0l0,0c0,0.6-0.4,1-1,1l0,0l0,0c-0.6,0-1-0.4-1-1l0,0l0,0
			C69,10.7,69.4,10.3,70,10.3z"/>
	</g>
	<g>
		<path d="M0,0"/>
		<path d="M77.4,5.9h2l0,0c2.2,0,4,1.8,4,4v2l0,0c0,2.2-1.8,4-4,4h-2l0,0c-2.2,0-4-1.8-4-4v-2l0,0C73.4,7.7,75.2,5.9,77.4,5.9z"/>
	</g>
	<g>
		<path d="M0,0"/>
		<path d="M87.4,7.1L87.4,7.1L87.4,7.1c2.1,0,3.9,1.7,3.9,3.9l0,0l0,0c0,2.1-1.7,3.9-3.9,3.9l0,0l0,0c-2.1,0-3.9-1.7-3.9-3.9l0,0
			l0,0C83.5,8.9,85.3,7.1,87.4,7.1z"/>
	</g>
	<g>
		<path d="M0,0"/>
		<path d="M95.3,7.9L95.3,7.9L95.3,7.9c1.8,0,3.3,1.5,3.3,3.3l0,0l0,0c0,1.8-1.5,3.3-3.3,3.3l0,0l0,0c-1.8,0-3.3-1.5-3.3-3.3l0,0
			l0,0C92.1,9.4,93.5,7.9,95.3,7.9z"/>
	</g>
	<g>
		<path d="M0,0"/>
		<path d="M102.5,6.8h0.3l0,0c2.2,0,4,1.8,4,4v0.3l0,0c0,2.2-1.8,4-4,4h-0.3l0,0c-2.2,0-4-1.8-4-4v-0.3l0,0
			C98.5,8.6,100.3,6.8,102.5,6.8z"/>
	</g>
	<g>
		<path d="M0,0"/>
		<path d="M110.7,6.8L110.7,6.8L110.7,6.8c2.2,0,4,1.8,4,4l0,0l0,0c0,2.2-1.8,4-4,4l0,0l0,0c-2.2,0-4-1.8-4-4l0,0l0,0
			C106.7,8.6,108.5,6.8,110.7,6.8z"/>
	</g>
	<g>
		<path d="M0,0"/>
		<path d="M126.2,6.3h2.1l0,0c2.2,0,4,1.8,4,4v2.1l0,0c0,2.2-1.8,4-4,4l0,0h-2.1l0,0c-2.2,0-4-1.8-4-4v0v-2.1l0,0
			C122.2,8.1,124,6.3,126.2,6.3z"/>
	</g>
	<g>
		<path d="M0,0"/>
		<path d="M133.2,5.7h3.7l0,0c2.2,0,4,1.8,4,4v3.7l0,0c0,2.2-1.8,4-4,4h-3.7l0,0c-2.2,0-4-1.8-4-4V9.7l0,0
			C129.2,7.5,131,5.7,133.2,5.7z"/>
	</g>
	<g>
		<path d="M0,0"/>
		<path d="M141.8,5.2h2.7l0,0c2.2,0,4,1.8,4,4v2.7l0,0c0,2.2-1.8,4-4,4h-2.7l0,0c-2.2,0-4-1.8-4-4V9.2l0,0
			C137.8,7,139.6,5.2,141.8,5.2z"/>
	</g>
	<g>
		<path d="M0,0"/>
		<path d="M150,6.6h1l0,0c2.2,0,4,1.8,4,4v1l0,0c0,2.2-1.8,4-4,4h-1l0,0c-2.2,0-4-1.8-4-4v-1l0,0C146,8.4,147.8,6.6,150,6.6z"/>
	</g>
	<g>
		<path d="M0,0"/>
		<path d="M158.5,6.1h1.5l0,0c2.2,0,4,1.8,4,4v1.5l0,0c0,2.2-1.8,4-4,4h-1.5l0,0c-2.2,0-4-1.8-4-4v-1.5l0,0
			C154.5,7.9,156.2,6.1,158.5,6.1z"/>
	</g>
	<g>
		<path d="M0,0"/>
		<path d="M168.1,7L168.1,7L168.1,7c2.1,0,3.8,1.7,3.8,3.8l0,0l0,0c0,2.1-1.7,3.8-3.8,3.8l0,0l0,0c-2.1,0-3.8-1.7-3.8-3.8l0,0l0,0
			C164.3,8.8,166,7,168.1,7z"/>
	</g>
	<g>
		<path d="M0,0"/>
		<path d="M18.6,18.8L18.6,18.8L18.6,18.8c0.2,0,0.4,0.2,0.4,0.4l0,0l0,0c0,0.2-0.2,0.4-0.4,0.4l0,0l0,0c-0.2,0-0.4-0.2-0.4-0.4l0,0
			l0,0C18.3,19,18.4,18.8,18.6,18.8z"/>
	</g>
	<g>
		<path d="M0,0"/>
		<path d="M26.7,14.9L26.7,14.9L26.7,14.9c1.9,0,3.4,1.5,3.4,3.4l0,0l0,0c0,1.9-1.5,3.4-3.4,3.4l0,0l0,0l0,0c-1.9,0-3.4-1.5-3.4-3.4
			l0,0l0,0l0,0C23.3,16.4,24.8,14.9,26.7,14.9z"/>
	</g>
	<g>
		<path d="M0,0"/>
		<path d="M34.9,16.5L34.9,16.5L34.9,16.5c1.1,0,2,0.9,2,2l0,0l0,0c0,1.1-0.9,2-2,2l0,0l0,0c-1.1,0-2-0.9-2-2l0,0l0,0
			C32.9,17.4,33.8,16.5,34.9,16.5z"/>
	</g>
	<g>
		<path d="M0,0"/>
		<path d="M51.1,18.5L51.1,18.5L51.1,18.5c0.2,0,0.3,0.1,0.3,0.3l0,0l0,0c0,0.2-0.1,0.3-0.3,0.3l0,0l0,0c-0.2,0-0.3-0.1-0.3-0.3l0,0
			l0,0C50.8,18.6,50.9,18.5,51.1,18.5z"/>
	</g>
	<g>
		<path d="M0,0"/>
		<path d="M56.6,12.6h3.5l0,0c2.2,0,4,1.8,4,4c0,0,0,0,0,0v3.5l0,0c0,2.2-1.8,4-4,4h0h-3.5l0,0c-2.2,0-4-1.8-4-4v-3.5l0,0
			C52.6,14.4,54.4,12.6,56.6,12.6z"/>
	</g>
	<g>
		<path d="M0,0"/>
		<path d="M65.3,13.7H69l0,0c2.2,0,4,1.8,4,4v3.7l0,0c0,2.2-1.8,4-4,4h-3.7l0,0c-2.2,0-4-1.8-4-4v-3.7l0,0
			C61.3,15.5,63.1,13.7,65.3,13.7z"/>
	</g>
	<g>
		<path d="M0,0"/>
		<path d="M139.7,16.7L139.7,16.7L139.7,16.7c1.2,0,2.2,1,2.2,2.2l0,0l0,0c0,1.2-1,2.2-2.2,2.2l0,0l0,0c-1.2,0-2.2-1-2.2-2.2l0,0
			l0,0C137.5,17.7,138.5,16.7,139.7,16.7z"/>
	</g>
	<g>
		<path d="M0,0"/>
		<path d="M146.2,16.8L146.2,16.8L146.2,16.8c1.3,0,2.4,1.1,2.4,2.4l0,0l0,0l0,0c0,1.3-1.1,2.4-2.4,2.4l0,0l0,0l0,0
			c-1.3,0-2.4-1.1-2.4-2.4l0,0l0,0l0,0C143.8,17.9,144.8,16.8,146.2,16.8L146.2,16.8z"/>
	</g>
	<g>
		<path d="M0,0"/>
		<path d="M153.2,13.4h2.1l0,0c2.2,0,4,1.8,4,4v2.1l0,0c0,2.2-1.8,4-4,4h-2.1l0,0c-2.2,0-4-1.8-4-4v-2.1l0,0
			C149.2,15.2,151,13.4,153.2,13.4z"/>
	</g>
	<g>
		<path d="M0,0"/>
		<path d="M161.3,12.8h3.5l0,0c2.2,0,4,1.8,4,4v3.5l0,0c0,2.2-1.8,4-4,4h-3.5l0,0c-2.2,0-4-1.8-4-4v-3.5l0,0
			C157.3,14.6,159.1,12.8,161.3,12.8z"/>
	</g>
	<g>
		<path d="M0,0"/>
		<path d="M169.3,13.5h3.4l0,0c2.2,0,4,1.8,4,4V21l0,0c0,2.2-1.8,4-4,4h-3.4l0,0c-2.2,0-4-1.8-4-4v-3.4l0,0
			C165.3,15.3,167.1,13.5,169.3,13.5z"/>
	</g>
	<g>
		<path d="M0,0"/>
		<path d="M38.3,20.9h2.3l0,0c2.2,0,4,1.8,4,4v2.3l0,0c0,2.2-1.8,4-4,4h-2.3l0,0c-2.2,0-4-1.8-4-4v-2.3l0,0
			C34.3,22.7,36.1,20.9,38.3,20.9z"/>
	</g>
	<g>
		<path d="M0,0"/>
		<path d="M46.2,24.4L46.2,24.4L46.2,24.4c1.6,0,2.9,1.3,2.9,2.9l0,0l0,0l0,0c0,1.6-1.3,2.9-2.9,2.9l0,0l0,0l0,0
			c-1.6,0-2.9-1.3-2.9-2.9l0,0l0,0l0,0C43.3,25.7,44.6,24.4,46.2,24.4L46.2,24.4z"/>
	</g>
	<g>
		<path d="M0,0"/>
		<path d="M62.3,25.2L62.3,25.2L62.3,25.2c1.1,0,2,0.9,2,2l0,0l0,0c0,1.1-0.9,2-2,2l0,0l0,0c-1.1,0-2-0.9-2-2l0,0l0,0
			C60.2,26.1,61.1,25.2,62.3,25.2z"/>
	</g>
	<g>
		<path d="M0,0"/>
		<path d="M79.4,23.6L79.4,23.6L79.4,23.6c1.9,0,3.5,1.6,3.5,3.5l0,0l0,0c0,1.9-1.6,3.5-3.5,3.5l0,0l0,0c-1.9,0-3.5-1.6-3.5-3.5l0,0
			l0,0C75.9,25.1,77.4,23.6,79.4,23.6z"/>
	</g>
	<g>
		<path d="M0,0"/>
		<path d="M85.8,21.2h2.1l0,0c2.2,0,4,1.8,4,4v2.1l0,0c0,2.2-1.8,4-4,4h-2.1l0,0c-2.2,0-4-1.8-4-4v-2.1l0,0
			C81.8,23,83.6,21.2,85.8,21.2z"/>
	</g>
	<g>
		<path d="M0,0"/>
		<path d="M93.4,21.8h2.8l0,0c2.2,0,4,1.8,4,4v2.8l0,0c0,2.2-1.8,4-4,4l0,0h-2.8l0,0c-2.2,0-4-1.8-4-4v0v-2.8l0,0
			C89.4,23.6,91.2,21.8,93.4,21.8z"/>
	</g>
	<g>
		<path d="M0,0"/>
		<path d="M102,22.2h1.4l0,0c2.2,0,4,1.8,4,4v1.4l0,0c0,2.2-1.8,4-4,4H102l0,0c-2.2,0-4-1.8-4-4v-1.4l0,0C98,24,99.8,22.2,102,22.2z
			"/>
	</g>
	<g>
		<path d="M0,0"/>
		<path d="M108.7,20.7h3.6l0,0c2.2,0,4,1.8,4,4v3.6l0,0c0,2.2-1.8,4-4,4h-3.6l0,0c-2.2,0-4-1.8-4-4v-3.6l0,0
			C104.7,22.5,106.5,20.7,108.7,20.7z"/>
	</g>
	<g>
		<path d="M0,0"/>
		<path d="M117.7,21.8h2.6l0,0c2.2,0,4,1.8,4,4v2.6l0,0c0,2.2-1.8,4-4,4h-2.6l0,0c-2.2,0-4-1.8-4-4v-2.6l0,0
			C113.7,23.6,115.5,21.8,117.7,21.8z"/>
	</g>
	<g>
		<path d="M0,0"/>
		<path d="M158.3,21.8h2.1l0,0c2.2,0,4,1.8,4,4v2.1l0,0c0,2.2-1.8,4-4,4h-2.1l0,0c-2.2,0-4-1.8-4-4v-2.1l0,0
			C154.3,23.6,156.1,21.8,158.3,21.8z"/>
	</g>
	<g>
		<path d="M0,0"/>
		<path d="M166.8,23.3L166.8,23.3L166.8,23.3c2.1,0,3.8,1.7,3.8,3.8l0,0l0,0c0,2.1-1.7,3.8-3.8,3.8l0,0l0,0c-2.1,0-3.8-1.7-3.8-3.8
			l0,0l0,0C163,25.1,164.7,23.3,166.8,23.3z"/>
	</g>
	<g>
		<path d="M0,0"/>
		<path d="M175.4,22.3L175.4,22.3L175.4,22.3c2.2,0,4,1.8,4,4l0,0l0,0c0,2.2-1.8,4-4,4l0,0l0,0c-2.2,0-4-1.8-4-4l0,0l0,0
			C171.4,24.1,173.2,22.3,175.4,22.3z"/>
	</g>
	<g>
		<path d="M0,0"/>
		<path d="M182.3,22.8h0.8l0,0c2.2,0,4,1.8,4,4v0.8l0,0c0,2.2-1.8,4-4,4h-0.8l0,0c-2.2,0-4-1.8-4-4v-0.8l0,0
			C178.3,24.6,180,22.8,182.3,22.8z"/>
	</g>
	<g>
		<path d="M0,0"/>
		<path d="M43,34.7L43,34.7L43,34.7c0.1,0,0.2,0.1,0.2,0.2l0,0l0,0c0,0.1-0.1,0.2-0.2,0.2l0,0l0,0c-0.1,0-0.2-0.1-0.2-0.2l0,0l0,0
			C42.7,34.8,42.8,34.7,43,34.7z"/>
	</g>
	<g>
		<path d="M0,0"/>
		<path d="M67,30.5h1l0,0c2.2,0,4,1.8,4,4v1l0,0c0,2.2-1.8,4-4,4h-1l0,0c-2.2,0-4-1.8-4-4v-1l0,0C63,32.2,64.8,30.5,67,30.5z"/>
	</g>
	<g>
		<path d="M0,0"/>
		<path d="M75.1,30.9h0.3l0,0c2.2,0,4,1.8,4,4v0.3l0,0c0,2.2-1.8,4-4,4h-0.3l0,0c-2.2,0-4-1.8-4-4v-0.3l0,0
			C71.1,32.7,72.9,30.9,75.1,30.9z"/>
	</g>
	<g>
		<path d="M0,0"/>
		<path d="M83.7,32.6L83.7,32.6L83.7,32.6c1.6,0,2.9,1.3,2.9,2.9l0,0l0,0l0,0c0,1.6-1.3,2.9-2.9,2.9l0,0l0,0l0,0
			c-1.6,0-2.9-1.3-2.9-2.9l0,0l0,0l0,0C80.8,33.9,82.1,32.6,83.7,32.6L83.7,32.6z"/>
	</g>
	<g>
		<path d="M0,0"/>
		<path d="M115.8,32.4L115.8,32.4L115.8,32.4c1.2,0,2.2,1,2.2,2.2l0,0l0,0c0,1.2-1,2.2-2.2,2.2l0,0l0,0c-1.2,0-2.2-1-2.2-2.2l0,0
			l0,0C113.6,33.4,114.6,32.4,115.8,32.4z"/>
	</g>
	<g>
		<path d="M0,0"/>
		<path d="M122.3,30.2h0.8l0,0c2.2,0,4,1.8,4,4v0.8l0,0c0,2.2-1.8,4-4,4h-0.8l0,0c-2.2,0-4-1.8-4-4v-0.8l0,0
			C118.3,32,120.1,30.2,122.3,30.2z"/>
	</g>
	<g>
		<path d="M0,0"/>
		<path d="M128.9,29.3h3.1l0,0c2.2,0,4,1.8,4,4v3.1l0,0c0,2.2-1.8,4-4,4h-3.1l0,0c-2.2,0-4-1.8-4-4v-3.1l0,0
			C124.9,31.1,126.7,29.3,128.9,29.3z"/>
	</g>
	<g>
		<path d="M0,0"/>
		<path d="M136.9,29.3h3.8l0,0c2.2,0,4,1.8,4,4V37l0,0c0,2.2-1.8,4-4,4h-3.8l0,0c-2.2,0-4-1.8-4-4v-3.8l0,0
			C132.9,31.1,134.7,29.3,136.9,29.3z"/>
	</g>
	<g>
		<path d="M0,0"/>
		<path d="M169,28.3h4l0,0c2.2,0,4,1.8,4,4v4l0,0c0,2.2-1.8,4-4,4h-4l0,0c-2.2,0-4-1.8-4-4v-4l0,0C165,30.1,166.8,28.3,169,28.3z"/>
	</g>
	<g>
		<path d="M0,0"/>
		<path d="M178,29.2h2.6l0,0c2.2,0,4,1.8,4,4v2.6l0,0c0,2.2-1.8,4-4,4H178l0,0c-2.2,0-4-1.8-4-4v-2.6l0,0
			C174,31,175.8,29.2,178,29.2z"/>
	</g>
	<g>
		<path d="M0,0"/>
		<path d="M186.8,32.1L186.8,32.1L186.8,32.1c1.7,0,3,1.4,3,3l0,0l0,0c0,1.7-1.4,3-3,3l0,0l0,0c-1.7,0-3-1.4-3-3l0,0l0,0
			C183.8,33.5,185.1,32.1,186.8,32.1z"/>
	</g>
	<g>
		<path d="M0,0"/>
		<path d="M195.3,31.8L195.3,31.8L195.3,31.8c1.5,0,2.7,1.2,2.7,2.7l0,0l0,0c0,1.5-1.2,2.7-2.7,2.7l0,0l0,0c-1.5,0-2.7-1.2-2.7-2.7
			l0,0l0,0C192.6,33,193.8,31.8,195.3,31.8z"/>
	</g>
	<g>
		<path d="M0,0"/>
		<path d="M21.8,40.3L21.8,40.3L21.8,40.3c1.3,0,2.4,1.1,2.4,2.4l0,0l0,0c0,1.3-1.1,2.4-2.4,2.4l0,0l0,0c-1.3,0-2.4-1.1-2.4-2.4l0,0
			l0,0C19.5,41.4,20.5,40.3,21.8,40.3z"/>
	</g>
	<g>
		<path d="M0,0"/>
		<path d="M28.9,38.5h2.4l0,0c2.2,0,4,1.8,4,4v2.4l0,0c0,2.2-1.8,4-4,4h-2.4l0,0c-2.2,0-4-1.8-4-4v-2.4l0,0
			C24.9,40.2,26.7,38.5,28.9,38.5z"/>
	</g>
	<g>
		<path d="M0,0"/>
		<path d="M62.1,38.6h1.6l0,0c2.2,0,4,1.8,4,4v1.6l0,0c0,2.2-1.8,4-4,4h-1.6l0,0c-2.2,0-4-1.8-4-4v-1.6l0,0
			C58.1,40.4,59.9,38.6,62.1,38.6z"/>
	</g>
	<g>
		<path d="M0,0"/>
		<path d="M87.5,42.5L87.5,42.5L87.5,42.5c0.3,0,0.5,0.2,0.5,0.5l0,0l0,0l0,0c0,0.3-0.2,0.5-0.5,0.5l0,0l0,0l0,0
			c-0.3,0-0.5-0.2-0.5-0.5l0,0l0,0l0,0C87,42.7,87.2,42.5,87.5,42.5L87.5,42.5z"/>
	</g>
	<g>
		<path d="M0,0"/>
		<path d="M134.4,39.7L134.4,39.7L134.4,39.7c2.1,0,3.9,1.7,3.9,3.9l0,0l0,0l0,0c0,2.1-1.7,3.9-3.9,3.9l0,0l0,0l0,0
			c-2.1,0-3.9-1.7-3.9-3.9l0,0l0,0l0,0C130.6,41.4,132.3,39.7,134.4,39.7L134.4,39.7z"/>
	</g>
	<g>
		<path d="M0,0"/>
		<path d="M142.9,39.5L142.9,39.5L142.9,39.5c1.7,0,3.1,1.4,3.1,3.1l0,0l0,0c0,1.7-1.4,3.1-3.1,3.1l0,0l0,0l0,0
			c-1.7,0-3.1-1.4-3.1-3.1l0,0l0,0l0,0C139.8,40.9,141.2,39.5,142.9,39.5z"/>
	</g>
	<g>
		<path d="M0,0"/>
		<path d="M150.7,37.7h1.3l0,0c2.2,0,4,1.8,4,4V43l0,0c0,2.2-1.8,4-4,4h-1.3l0,0c-2.2,0-4-1.8-4-4v-1.3l0,0
			C146.7,39.4,148.4,37.7,150.7,37.7z"/>
	</g>
	<g>
		<path d="M0,0"/>
		<path d="M173.7,37.6h1.7l0,0c2.2,0,4,1.8,4,4v1.7l0,0c0,2.2-1.8,4-4,4h-1.7l0,0c-2.2,0-4-1.8-4-4v-1.7l0,0
			C169.7,39.4,171.5,37.6,173.7,37.6z"/>
	</g>
	<g>
		<path d="M0,0"/>
		<path d="M180.9,36.6h3.6l0,0c2.2,0,4,1.8,4,4v3.6l0,0c0,2.2-1.8,4-4,4h-3.6l0,0c-2.2,0-4-1.8-4-4v-3.6l0,0
			C176.9,38.4,178.7,36.6,180.9,36.6z"/>
	</g>
	<g>
		<path d="M0,0"/>
		<path d="M189.3,37.3h1.4l0,0c2.2,0,4,1.8,4,4v1.4l0,0c0,2.2-1.8,4-4,4h-1.4l0,0c-2.2,0-4-1.8-4-4v-1.4l0,0
			C185.3,39.1,187.1,37.3,189.3,37.3z"/>
	</g>
	<g>
		<path d="M0,0"/>
		<path d="M196.9,37h3.8l0,0c2.2,0,4,1.8,4,4v3.8l0,0c0,2.2-1.8,4-4,4h-3.8l0,0c-2.2,0-4-1.8-4-4V41l0,0
			C192.9,38.8,194.7,37,196.9,37z"/>
	</g>
	<g>
		<path d="M0,0"/>
		<path d="M10.8,46.7h0.9l0,0c2.2,0,4,1.8,4,4v0.9l0,0c0,2.2-1.8,4-4,4h-0.9l0,0c-2.2,0-4-1.8-4-4v-0.9l0,0
			C6.8,48.5,8.6,46.7,10.8,46.7z"/>
	</g>
	<g>
		<path d="M0,0"/>
		<path d="M17.4,45.7h3.2l0,0c2.2,0,4,1.8,4,4v3.2l0,0c0,2.2-1.8,4-4,4h-3.2l0,0c-2.2,0-4-1.8-4-4v-3.2l0,0
			C13.4,47.5,15.2,45.7,17.4,45.7z"/>
	</g>
	<g>
		<path d="M0,0"/>
		<path d="M26.3,48.7L26.3,48.7L26.3,48.7c0.9,0,1.7,0.8,1.7,1.7l0,0l0,0l0,0c0,0.9-0.8,1.7-1.7,1.7l0,0l0,0c-0.9,0-1.7-0.8-1.7-1.7
			l0,0l0,0C24.6,49.5,25.4,48.7,26.3,48.7L26.3,48.7z"/>
	</g>
	<g>
		<path d="M0,0"/>
		<path d="M35.5,49.2L35.5,49.2L35.5,49.2c1.1,0,1.9,0.9,1.9,1.9l0,0l0,0c0,1.1-0.9,1.9-1.9,1.9l0,0l0,0c-1.1,0-1.9-0.9-1.9-1.9l0,0
			l0,0C33.6,50.1,34.4,49.2,35.5,49.2z"/>
	</g>
	<g>
		<path d="M0,0"/>
		<path d="M50.8,49L50.8,49L50.8,49c1.1,0,2,0.9,2,2l0,0l0,0c0,1.1-0.9,2-2,2l0,0l0,0c-1.1,0-2-0.9-2-2l0,0l0,0
			C48.8,49.9,49.7,49,50.8,49z"/>
	</g>
	<g>
		<path d="M0,0"/>
		<path d="M67.2,47.2L67.2,47.2L67.2,47.2c1.9,0,3.4,1.5,3.4,3.4l0,0l0,0c0,1.9-1.5,3.4-3.4,3.4l0,0l0,0c-1.9,0-3.4-1.5-3.4-3.4l0,0
			l0,0C63.8,48.7,65.3,47.2,67.2,47.2z"/>
	</g>
	<g>
		<path d="M0,0"/>
		<path d="M83.9,46.8L83.9,46.8L83.9,46.8c2.2,0,3.9,1.7,3.9,3.9l0,0l0,0c0,2.2-1.7,3.9-3.9,3.9l0,0l0,0c-2.2,0-3.9-1.7-3.9-3.9l0,0
			l0,0C79.9,48.6,81.7,46.8,83.9,46.8z"/>
	</g>
	<g>
		<path d="M0,0"/>
		<path d="M90.2,46.6h1.6l0,0c2.2,0,4,1.8,4,4v1.6l0,0c0,2.2-1.8,4-4,4h-1.6l0,0c-2.2,0-4-1.8-4-4v-1.6l0,0
			C86.2,48.4,88,46.6,90.2,46.6z"/>
	</g>
	<g>
		<path d="M0,0"/>
		<path d="M97.5,46.1h2.9l0,0c2.2,0,4,1.8,4,4v2.9l0,0c0,2.2-1.8,4-4,4h-2.9l0,0c-2.2,0-4-1.8-4-4v-2.9l0,0
			C93.5,47.8,95.3,46.1,97.5,46.1z"/>
	</g>
	<g>
		<path d="M0,0"/>
		<path d="M105.6,46.4h2.2l0,0c2.2,0,4,1.8,4,4v2.2l0,0c0,2.2-1.8,4-4,4h-2.2l0,0c-2.2,0-4-1.8-4-4v-2.2l0,0
			C101.6,48.2,103.4,46.4,105.6,46.4z"/>
	</g>
	<g>
		<path d="M0,0"/>
		<path d="M114.8,49L114.8,49L114.8,49c0.8,0,1.4,0.6,1.4,1.4l0,0l0,0l0,0c0,0.8-0.6,1.4-1.4,1.4l0,0l0,0l0,0
			c-0.8,0-1.4-0.6-1.4-1.4l0,0l0,0l0,0C113.5,49.6,114.1,49,114.8,49L114.8,49z"/>
	</g>
	<g>
		<path d="M0,0"/>
		<path d="M154.8,49.2L154.8,49.2L154.8,49.2c0.9,0,1.7,0.8,1.7,1.7l0,0l0,0c0,0.9-0.8,1.7-1.7,1.7l0,0l0,0c-0.9,0-1.7-0.8-1.7-1.7
			l0,0l0,0C153.1,49.9,153.9,49.2,154.8,49.2z"/>
	</g>
	<g>
		<path d="M0,0"/>
		<path d="M179,49.8L179,49.8L179,49.8c0.8,0,1.4,0.6,1.4,1.4l0,0l0,0c0,0.8-0.6,1.4-1.4,1.4l0,0l0,0l0,0c-0.8,0-1.4-0.6-1.4-1.4
			l0,0l0,0l0,0C177.5,50.4,178.2,49.8,179,49.8z"/>
	</g>
	<g>
		<path d="M0,0"/>
		<path d="M184.8,45h4l0,0c2.2,0,4,1.8,4,4v4l0,0c0,2.2-1.8,4-4,4h-4l0,0c-2.2,0-4-1.8-4-4v-4l0,0C180.8,46.7,182.6,45,184.8,45z"/>
	</g>
	<g>
		<path d="M0,0"/>
		<path d="M193.1,45.5h2.8l0,0c2.2,0,4,1.8,4,4v2.8l0,0c0,2.2-1.8,4-4,4h-2.8l0,0c-2.2,0-4-1.8-4-4v-2.8l0,0
			C189.1,47.3,190.9,45.5,193.1,45.5z"/>
	</g>
	<g>
		<path d="M0,0"/>
		<path d="M5.7,54.1h2.1l0,0c2.2,0,4,1.8,4,4v2.1l0,0c0,2.2-1.8,4-4,4H5.7l0,0c-2.2,0-4-1.8-4-4v-2.1l0,0
			C1.7,55.9,3.5,54.1,5.7,54.1z"/>
	</g>
	<g>
		<path d="M0,0"/>
		<path d="M13.4,53.4h2.6l0,0c2.2,0,4,1.8,4,4V60l0,0c0,2.2-1.8,4-4,4h-2.6l0,0c-2.2,0-4-1.8-4-4v-2.6l0,0
			C9.4,55.2,11.1,53.4,13.4,53.4z"/>
	</g>
	<g>
		<path d="M0,0"/>
		<path d="M30.1,57.5L30.1,57.5L30.1,57.5c0.6,0,1,0.5,1,1l0,0l0,0l0,0c0,0.6-0.5,1-1,1l0,0l0,0l0,0c-0.6,0-1-0.5-1-1l0,0l0,0l0,0
			C29.1,58,29.6,57.5,30.1,57.5L30.1,57.5z"/>
	</g>
	<g>
		<path d="M0,0"/>
		<path d="M45.2,53.3h2.9l0,0c2.2,0,4,1.8,4,4v2.9l0,0c0,2.2-1.8,4-4,4h-2.9l0,0c-2.2,0-4-1.8-4-4v-2.9l0,0
			C41.2,55.1,43,53.3,45.2,53.3z"/>
	</g>
	<g>
		<path d="M0,0"/>
		<path d="M71,58.7L71,58.7L71,58.7c0.4,0,0.8,0.3,0.8,0.8l0,0l0,0c0,0.4-0.3,0.8-0.8,0.8l0,0l0,0c-0.4,0-0.8-0.3-0.8-0.8l0,0l0,0
			C70.2,59,70.6,58.7,71,58.7z"/>
	</g>
	<g>
		<path d="M0,0"/>
		<path d="M77.6,53.8h2l0,0c2.2,0,4,1.8,4,4v2l0,0c0,2.2-1.8,4-4,4h-2l0,0c-2.2,0-4-1.8-4-4v-2l0,0C73.6,55.6,75.4,53.8,77.6,53.8z"
			/>
	</g>
	<g>
		<path d="M0,0"/>
		<path d="M86.3,54.9h0.2l0,0c2.2,0,4,1.8,4,4v0.2l0,0c0,2.2-1.8,4-4,4h-0.2l0,0c-2.2,0-4-1.8-4-4v-0.2l0,0
			C82.3,56.7,84.1,54.9,86.3,54.9z"/>
	</g>
	<g>
		<path d="M0,0"/>
		<path d="M94.3,54.8h1.2l0,0c2.2,0,4,1.8,4,4V60l0,0c0,2.2-1.8,4-4,4h-1.2l0,0c-2.2,0-4-1.8-4-4v-1.2l0,0
			C90.3,56.6,92.1,54.8,94.3,54.8z"/>
	</g>
	<g>
		<path d="M0,0"/>
		<path d="M102.3,54L102.3,54L102.3,54c2.2,0,3.9,1.8,3.9,3.9l0,0l0,0l0,0c0,2.2-1.8,3.9-3.9,3.9l0,0l0,0l0,0
			c-2.2,0-3.9-1.8-3.9-3.9l0,0l0,0l0,0C98.4,55.8,100.1,54,102.3,54L102.3,54z"/>
	</g>
	<g>
		<path d="M0,0"/>
		<path d="M108.2,53.1h3.7l0,0c2.2,0,4,1.8,4,4v3.7l0,0c0,2.2-1.8,4-4,4h-3.7l0,0c-2.2,0-4-1.8-4-4v-3.7l0,0
			C104.2,54.9,106,53.1,108.2,53.1z"/>
	</g>
	<g>
		<path d="M0,0"/>
		<path d="M118.6,53.9h1.5l0,0c2.2,0,4,1.8,4,4v1.5l0,0c0,2.2-1.8,4-4,4h-1.5l0,0c-2.2,0-4-1.8-4-4v-1.5l0,0
			C114.6,55.7,116.4,53.9,118.6,53.9z"/>
	</g>
	<g>
		<path d="M0,0"/>
		<path d="M125.9,54.6h1.2l0,0c2.2,0,4,1.8,4,4c0,0,0,0,0,0v1.2l0,0c0,2.2-1.8,4-4,4h0h-1.2l0,0c-2.2,0-4-1.8-4-4v-1.2l0,0
			C121.9,56.4,123.7,54.6,125.9,54.6z"/>
	</g>
	<g>
		<path d="M0,0"/>
		<path d="M150.5,57.2L150.5,57.2L150.5,57.2c1.1,0,1.9,0.9,1.9,1.9l0,0l0,0l0,0c0,1.1-0.9,1.9-1.9,1.9l0,0l0,0
			c-1.1,0-1.9-0.9-1.9-1.9l0,0l0,0C148.6,58.1,149.5,57.2,150.5,57.2L150.5,57.2z"/>
	</g>
	<g>
		<path d="M0,0"/>
		<path d="M165.6,53.3h2.5l0,0c2.2,0,4,1.8,4,4v2.5l0,0c0,2.2-1.8,4-4,4h-2.5l0,0c-2.2,0-4-1.8-4-4v-2.5l0,0
			C161.6,55.1,163.3,53.3,165.6,53.3z"/>
	</g>
	<g>
		<path d="M0,0"/>
		<path d="M190.3,54.8h0.3l0,0c2.2,0,4,1.8,4,4v0.3l0,0c0,2.2-1.8,4-4,4h-0.3l0,0c-2.2,0-4-1.8-4-4v-0.3l0,0
			C186.3,56.6,188.1,54.8,190.3,54.8z"/>
	</g>
	<g>
		<path d="M0,0"/>
		<path d="M196.4,52.1h4l0,0c2.2,0,4,1.8,4,4v4l0,0c0,2.2-1.8,4-4,4h-4l0,0c-2.2,0-4-1.8-4-4v-4l0,0
			C192.4,53.9,194.2,52.1,196.4,52.1z"/>
	</g>
	<g>
		<path d="M0,0"/>
		<path d="M2.9,62.5H4l0,0c2.2,0,4,1.8,4,4l0,0v1.1l0,0c0,2.2-1.8,4-4,4h0H2.9l0,0c-2.2,0-4-1.8-4-4v-1.1l0,0
			C-1.1,64.3,0.7,62.5,2.9,62.5z"/>
	</g>
	<g>
		<path d="M0,0"/>
		<path d="M9.9,61.5h2.2l0,0c2.2,0,4,1.8,4,4l0,0v2.2l0,0c0,2.2-1.8,4-4,4h0H9.9l0,0c-2.2,0-4-1.8-4-4v-2.2l0,0
			C5.9,63.3,7.7,61.5,9.9,61.5z"/>
	</g>
	<g>
		<path d="M0,0"/>
		<path d="M41.5,61.7h2.9l0,0c2.2,0,4,1.8,4,4v2.9l0,0c0,2.2-1.8,4-4,4h-2.9l0,0c-2.2,0-4-1.8-4-4v-2.9l0,0
			C37.5,63.5,39.3,61.7,41.5,61.7z"/>
	</g>
	<g>
		<path d="M0,0"/>
		<path d="M66.6,62.8h2.2l0,0c2.2,0,4,1.8,4,4V69l0,0c0,2.2-1.8,4-4,4h-2.2l0,0c-2.2,0-4-1.8-4-4v-2.2l0,0
			C62.6,64.6,64.3,62.8,66.6,62.8z"/>
	</g>
	<g>
		<path d="M0,0"/>
		<path d="M122.5,62.8h1l0,0c2.2,0,4,1.8,4,4v1l0,0c0,2.2-1.8,4-4,4h-1l0,0c-2.2,0-4-1.8-4-4v-1l0,0
			C118.5,64.6,120.3,62.8,122.5,62.8z"/>
	</g>
	<g>
		<path d="M0,0"/>
		<path d="M128.8,61.9h2.7l0,0c2.2,0,4,1.8,4,4v2.7l0,0c0,2.2-1.8,4-4,4h-2.7l0,0c-2.2,0-4-1.8-4-4v-2.7l0,0
			C124.8,63.7,126.6,61.9,128.8,61.9z"/>
	</g>
	<g>
		<path d="M0,0"/>
		<path d="M136.8,60.6h3.8l0,0c2.2,0,4,1.8,4,4v3.8l0,0c0,2.2-1.8,4-4,4h-3.8l0,0c-2.2,0-4-1.8-4-4v-3.8l0,0
			C132.8,62.4,134.6,60.6,136.8,60.6z"/>
	</g>
	<g>
		<path d="M0,0"/>
		<path d="M154.2,64.5L154.2,64.5L154.2,64.5c1.2,0,2.2,1,2.2,2.2l0,0l0,0l0,0c0,1.2-1,2.2-2.2,2.2l0,0l0,0l0,0
			c-1.2,0-2.2-1-2.2-2.2l0,0l0,0l0,0C151.9,65.5,152.9,64.5,154.2,64.5L154.2,64.5z"/>
	</g>
	<g>
		<path d="M0,0"/>
		<path d="M162.5,65.6L162.5,65.6L162.5,65.6c0.9,0,1.6,0.7,1.6,1.6l0,0l0,0c0,0.9-0.7,1.6-1.6,1.6l0,0l0,0c-0.9,0-1.6-0.7-1.6-1.6
			l0,0l0,0C161,66.3,161.7,65.6,162.5,65.6z"/>
	</g>
	<g>
		<path d="M0,0"/>
		<path d="M169.6,61h3.5l0,0c2.2,0,4,1.8,4,4v3.5l0,0c0,2.2-1.8,4-4,4h-3.5l0,0c-2.2,0-4-1.8-4-4V65l0,0
			C165.6,62.8,167.4,61,169.6,61z"/>
	</g>
	<g>
		<path d="M0,0"/>
		<path d="M193.7,62.7h1.7l0,0c2.2,0,4,1.8,4,4v1.7l0,0c0,2.2-1.8,4-4,4h-1.7l0,0c-2.2,0-4-1.8-4-4v-1.7l0,0
			C189.7,64.5,191.5,62.7,193.7,62.7z"/>
	</g>
	<g>
		<path d="M0,0"/>
		<path d="M5.3,69.8h3.1l0,0c2.2,0,4,1.8,4,4V77l0,0c0,2.2-1.8,4-4,4H5.3l0,0c-2.2,0-4-1.8-4-4v-3.1l0,0C1.3,71.6,3.1,69.8,5.3,69.8
			z"/>
	</g>
	<g>
		<path d="M0,0"/>
		<path d="M14.5,70.3h0.2l0,0c2.2,0,4,1.8,4,4v0.2l0,0c0,2.2-1.8,4-4,4h-0.2l0,0c-2.2,0-4-1.8-4-4v-0.2l0,0
			C10.5,72.1,12.3,70.3,14.5,70.3z"/>
	</g>
	<g>
		<path d="M0,0"/>
		<path d="M22.4,71.9L22.4,71.9L22.4,71.9c1.4,0,2.6,1.2,2.6,2.6l0,0l0,0l0,0c0,1.4-1.2,2.6-2.6,2.6l0,0l0,0c-1.4,0-2.6-1.2-2.6-2.6
			l0,0l0,0C19.8,73.1,20.9,71.9,22.4,71.9L22.4,71.9z"/>
	</g>
	<g>
		<path d="M0,0"/>
		<path d="M38.5,69.9h1.4l0,0c2.2,0,4,1.8,4,4v1.4l0,0c0,2.2-1.8,4-4,4h-1.4l0,0c-2.2,0-4-1.8-4-4v-1.4l0,0
			C34.5,71.7,36.3,69.9,38.5,69.9z"/>
	</g>
	<g>
		<path d="M0,0"/>
		<path d="M61.8,68.8H65l0,0c2.2,0,4,1.8,4,4v3.2l0,0c0,2.2-1.8,4-4,4h-3.2l0,0c-2.2,0-4-1.8-4-4v-3.2l0,0
			C57.8,70.6,59.6,68.8,61.8,68.8z"/>
	</g>
	<g>
		<path d="M0,0"/>
		<path d="M70.5,73.7L70.5,73.7L70.5,73.7c0.6,0,1,0.5,1,1l0,0l0,0l0,0c0,0.6-0.5,1-1,1l0,0l0,0l0,0c-0.6,0-1-0.5-1-1l0,0l0,0l0,0
			C69.5,74.2,70,73.7,70.5,73.7L70.5,73.7z"/>
	</g>
	<g>
		<path d="M0,0"/>
		<path d="M86.7,70.6h0.9l0,0c2.2,0,4,1.8,4,4v0.9l0,0c0,2.2-1.8,4-4,4h-0.9l0,0c-2.2,0-4-1.8-4-4v-0.9l0,0
			C82.7,72.4,84.4,70.6,86.7,70.6z"/>
	</g>
	<g>
		<path d="M0,0"/>
		<path d="M93.1,68.8h2.9l0,0c2.2,0,4,1.8,4,4v2.9l0,0c0,2.2-1.8,4-4,4h-2.9l0,0c-2.2,0-4-1.8-4-4v-2.9l0,0
			C89.1,70.6,90.9,68.8,93.1,68.8z"/>
	</g>
	<g>
		<path d="M0,0"/>
		<path d="M100.9,69.2h3.8l0,0c2.2,0,4,1.8,4,4v3.8l0,0c0,2.2-1.8,4-4,4h-3.8l0,0c-2.2,0-4-1.8-4-4v-3.8l0,0
			C96.9,71,98.6,69.2,100.9,69.2z"/>
	</g>
	<g>
		<path d="M0,0"/>
		<path d="M109.4,69.1h2.7l0,0c2.2,0,4,1.8,4,4v2.7l0,0c0,2.2-1.8,4-4,4h-2.7l0,0c-2.2,0-4-1.8-4-4v-2.7l0,0
			C105.4,70.9,107.1,69.1,109.4,69.1z"/>
	</g>
	<g>
		<path d="M0,0"/>
		<path d="M133.5,69.2h3.1l0,0c2.2,0,4,1.8,4,4v3.1l0,0c0,2.2-1.8,4-4,4h-3.1l0,0c-2.2,0-4-1.8-4-4v-3.1l0,0
			C129.5,71,131.3,69.2,133.5,69.2z"/>
	</g>
	<g>
		<path d="M0,0"/>
		<path d="M142.6,74L142.6,74L142.6,74c0.6,0,1.1,0.5,1.1,1.1l0,0l0,0l0,0c0,0.6-0.5,1.1-1.1,1.1l0,0l0,0c-0.6,0-1.1-0.5-1.1-1.1
			l0,0l0,0C141.6,74.5,142,74,142.6,74L142.6,74z"/>
	</g>
	<g>
		<path d="M0,0"/>
		<path d="M150.5,71.6L150.5,71.6L150.5,71.6c1.6,0,2.8,1.3,2.8,2.8l0,0l0,0l0,0c0,1.6-1.3,2.8-2.8,2.8l0,0l0,0l0,0
			c-1.6,0-2.8-1.3-2.8-2.8l0,0l0,0l0,0C147.7,72.8,149,71.6,150.5,71.6L150.5,71.6z"/>
	</g>
	<g>
		<path d="M0,0"/>
		<path d="M198.8,71.4L198.8,71.4L198.8,71.4c1.9,0,3.5,1.6,3.5,3.5l0,0l0,0c0,1.9-1.6,3.5-3.5,3.5l0,0l0,0c-1.9,0-3.5-1.6-3.5-3.5
			l0,0l0,0C195.3,73,196.9,71.4,198.8,71.4z"/>
	</g>
	<g>
		<path d="M0,0"/>
		<path d="M8.4,77.4h3.8l0,0c2.2,0,4,1.8,4,4v3.8l0,0c0,2.2-1.8,4-4,4H8.4l0,0c-2.2,0-4-1.8-4-4v-3.8l0,0
			C4.4,79.2,6.2,77.4,8.4,77.4z"/>
	</g>
	<g>
		<path d="M0,0"/>
		<path d="M33.2,77.6h2.9l0,0c2.2,0,4,1.8,4,4v2.9l0,0c0,2.2-1.8,4-4,4h-2.9l0,0c-2.2,0-4-1.8-4-4v-2.9l0,0
			C29.2,79.4,30.9,77.6,33.2,77.6z"/>
	</g>
	<g>
		<path d="M0,0"/>
		<path d="M56.9,76.7h3.6l0,0c2.2,0,4,1.8,4,4v3.6l0,0c0,2.2-1.8,4-4,4h-3.6l0,0c-2.2,0-4-1.8-4-4v-3.6l0,0
			C52.9,78.5,54.7,76.7,56.9,76.7z"/>
	</g>
	<g>
		<path d="M0,0"/>
		<path d="M66.9,81.1L66.9,81.1L66.9,81.1c1.3,0,2.3,1,2.3,2.3l0,0l0,0l0,0c0,1.3-1,2.3-2.3,2.3l0,0l0,0l0,0c-1.3,0-2.3-1-2.3-2.3
			l0,0l0,0l0,0C64.6,82.1,65.6,81.1,66.9,81.1L66.9,81.1z"/>
	</g>
	<g>
		<path d="M0,0"/>
		<path d="M83.3,78.7L83.3,78.7L83.3,78.7c2.1,0,3.8,1.7,3.8,3.8l0,0l0,0c0,2.1-1.7,3.8-3.8,3.8l0,0l0,0l0,0c-2.1,0-3.8-1.7-3.8-3.8
			l0,0l0,0l0,0C79.5,80.4,81.2,78.7,83.3,78.7z"/>
	</g>
	<g>
		<path d="M0,0"/>
		<path d="M90.8,80.9L90.8,80.9L90.8,80.9c1.2,0,2.2,1,2.2,2.2l0,0l0,0l0,0c0,1.2-1,2.2-2.2,2.2l0,0l0,0l0,0c-1.2,0-2.2-1-2.2-2.2
			l0,0l0,0l0,0C88.6,81.9,89.6,80.9,90.8,80.9L90.8,80.9z"/>
	</g>
	<g>
		<path d="M0,0"/>
		<path d="M120.7,76.9h3.8l0,0c2.2,0,4,1.8,4,4v3.8l0,0c0,2.2-1.8,4-4,4h-3.8l0,0c-2.2,0-4-1.8-4-4v-3.8l0,0
			C116.7,78.7,118.5,76.9,120.7,76.9z"/>
	</g>
	<g>
		<path d="M0,0"/>
		<path d="M146,77.2h2.1l0,0c2.2,0,4,1.8,4,4v2.1l0,0c0,2.2-1.8,4-4,4H146l0,0c-2.2,0-4-1.8-4-4v-2.1l0,0
			C142,79,143.8,77.2,146,77.2z"/>
	</g>
	<g>
		<path d="M0,0"/>
		<path d="M154.1,77.3h2.7l0,0c2.2,0,4,1.8,4,4V84l0,0c0,2.2-1.8,4-4,4h-2.7l0,0c-2.2,0-4-1.8-4-4v-2.7l0,0
			C150.1,79,151.9,77.3,154.1,77.3z"/>
	</g>
	<g>
		<path d="M0,0"/>
		<path d="M171,79L171,79L171,79c2,0,3.6,1.6,3.6,3.6l0,0l0,0c0,2-1.6,3.6-3.6,3.6l0,0l0,0c-2,0-3.6-1.6-3.6-3.6l0,0l0,0
			C167.4,80.6,169,79,171,79z"/>
	</g>
	<g>
		<path d="M0,0"/>
		<path d="M6.7,89.3L6.7,89.3L6.7,89.3c0.9,0,1.6,0.7,1.6,1.6l0,0l0,0c0,0.9-0.7,1.6-1.6,1.6l0,0l0,0c-0.9,0-1.6-0.7-1.6-1.6l0,0
			l0,0C5.1,90.1,5.8,89.3,6.7,89.3z"/>
	</g>
	<g>
		<path d="M0,0"/>
		<path d="M13.8,86.6h1.8l0,0c2.2,0,4,1.8,4,4v1.8l0,0c0,2.2-1.8,4-4,4h-1.8l0,0c-2.2,0-4-1.8-4-4v-1.8l0,0
			C9.8,88.4,11.6,86.6,13.8,86.6z"/>
	</g>
	<g>
		<path d="M0,0"/>
		<path d="M22.9,89.8L22.9,89.8L22.9,89.8c1,0,1.8,0.8,1.8,1.8l0,0l0,0l0,0c0,1-0.8,1.8-1.8,1.8l0,0l0,0l0,0c-1,0-1.8-0.8-1.8-1.8
			l0,0l0,0l0,0C21.1,90.7,21.9,89.8,22.9,89.8L22.9,89.8z"/>
	</g>
	<g>
		<path d="M0,0"/>
		<path d="M53.4,85.7h3.2l0,0c2.2,0,4,1.8,4,4v3.2l0,0c0,2.2-1.8,4-4,4h-3.2l0,0c-2.2,0-4-1.8-4-4v-3.2l0,0
			C49.4,87.5,51.2,85.7,53.4,85.7z"/>
	</g>
	<g>
		<path d="M0,0"/>
		<path d="M78.3,86.1h2.6l0,0c2.2,0,4,1.8,4,4v2.6l0,0c0,2.2-1.8,4-4,4h-2.6l0,0c-2.2,0-4-1.8-4-4v-2.6l0,0
			C74.3,87.9,76.1,86.1,78.3,86.1z"/>
	</g>
	<g>
		<path d="M0,0"/>
		<path d="M94.3,86.8h1.6l0,0c2.2,0,4,1.8,4,4v1.6l0,0c0,2.2-1.8,4-4,4h-1.6l0,0c-2.2,0-4-1.8-4-4v-1.6l0,0
			C90.3,88.5,92.1,86.8,94.3,86.8z"/>
	</g>
	<g>
		<path d="M0,0"/>
		<path d="M126.6,87.7L126.6,87.7L126.6,87.7c1.8,0,3.2,1.4,3.2,3.2l0,0l0,0l0,0c0,1.8-1.4,3.2-3.2,3.2l0,0l0,0l0,0
			c-1.8,0-3.2-1.4-3.2-3.2l0,0l0,0l0,0C123.4,89.1,124.8,87.7,126.6,87.7L126.6,87.7z"/>
	</g>
	<g>
		<path d="M0,0"/>
		<path d="M149.7,85.9h1.8l0,0c2.2,0,4,1.8,4,4v1.8l0,0c0,2.2-1.8,4-4,4h-1.8l0,0c-2.2,0-4-1.8-4-4v-1.8l0,0
			C145.7,87.7,147.5,85.9,149.7,85.9z"/>
	</g>
	<g>
		<path d="M0,0"/>
		<path d="M157.2,85.5h2.3l0,0c2.2,0,4,1.8,4,4v2.3l0,0c0,2.2-1.8,4-4,4h-2.3l0,0c-2.2,0-4-1.8-4-4v-2.3l0,0
			C153.2,87.2,155,85.5,157.2,85.5z"/>
	</g>
	<g>
		<path d="M0,0"/>
		<path d="M174.8,88.3L174.8,88.3L174.8,88.3c1.1,0,2,0.9,2,2l0,0l0,0l0,0c0,1.1-0.9,2-2,2l0,0l0,0c-1.1,0-2-0.9-2-2l0,0l0,0
			C172.8,89.2,173.7,88.3,174.8,88.3L174.8,88.3z"/>
	</g>
	<g>
		<path d="M0,0"/>
		<path d="M181.9,85.5h3.1l0,0c2.2,0,4,1.8,4,4v3.1l0,0c0,2.2-1.8,4-4,4h-3.1l0,0c-2.2,0-4-1.8-4-4v-3.1l0,0
			C177.9,87.3,179.7,85.5,181.9,85.5z"/>
	</g>
	<g>
		<path d="M0,0"/>
		<path d="M198.5,85.2h2.5l0,0c2.2,0,4,1.8,4,4v2.5l0,0c0,2.2-1.8,4-4,4h-2.5l0,0c-2.2,0-4-1.8-4-4v-2.5l0,0
			C194.5,87,196.3,85.2,198.5,85.2z"/>
	</g>
	<g>
		<path d="M0,0"/>
		<path d="M11,96.9L11,96.9L11,96.9c1.5,0,2.7,1.2,2.7,2.7l0,0l0,0c0,1.5-1.2,2.7-2.7,2.7l0,0l0,0l0,0c-1.5,0-2.7-1.2-2.7-2.7l0,0
			l0,0l0,0C8.2,98.1,9.5,96.9,11,96.9z"/>
	</g>
	<g>
		<path d="M0,0"/>
		<path d="M35.5,94.6L35.5,94.6L35.5,94.6c2.2,0,4,1.8,4,4l0,0l0,0l0,0c0,2.2-1.8,4-4,4l0,0l0,0l0,0c-2.2,0-4-1.8-4-4l0,0l0,0l0,0
			C31.6,96.3,33.3,94.6,35.5,94.6L35.5,94.6z"/>
	</g>
	<g>
		<path d="M0,0"/>
		<path d="M57.5,94.1h2l0,0c2.2,0,4,1.8,4,4v2l0,0c0,2.2-1.8,4-4,4h-2l0,0c-2.2,0-4-1.8-4-4v-2l0,0C53.5,95.9,55.3,94.1,57.5,94.1z"
			/>
	</g>
	<g>
		<path d="M0,0"/>
		<path d="M73.8,94.1h1.9l0,0c2.2,0,4,1.8,4,4v1.9l0,0c0,2.2-1.8,4-4,4h-1.9l0,0c-2.2,0-4-1.8-4-4v-1.9l0,0
			C69.8,95.9,71.6,94.1,73.8,94.1z"/>
	</g>
	<g>
		<path d="M0,0"/>
		<path d="M97.6,93.4h1.8l0,0c2.2,0,4,1.8,4,4v1.8l0,0c0,2.2-1.8,4-4,4h-1.8l0,0c-2.2,0-4-1.8-4-4v-1.8l0,0
			C93.6,95.2,95.4,93.4,97.6,93.4z"/>
	</g>
	<g>
		<path d="M0,0"/>
		<path d="M105.4,93.8h3.1l0,0c2.2,0,4,1.8,4,4v3.1l0,0c0,2.2-1.8,4-4,4h-3.1l0,0c-2.2,0-4-1.8-4-4v-3.1l0,0
			C101.4,95.6,103.2,93.8,105.4,93.8z"/>
	</g>
	<g>
		<path d="M0,0"/>
		<path d="M114.2,94.5h1.2l0,0c2.2,0,4,1.8,4,4v1.2l0,0c0,2.2-1.8,4-4,4h-1.2l0,0c-2.2,0-4-1.8-4-4v-1.2l0,0
			C110.2,96.3,111.9,94.5,114.2,94.5z"/>
	</g>
	<g>
		<path d="M0,0"/>
		<path d="M130.8,95.1L130.8,95.1L130.8,95.1c1.7,0,3,1.3,3,3l0,0l0,0c0,1.7-1.3,3-3,3l0,0l0,0c-1.7,0-3-1.3-3-3l0,0l0,0
			C127.8,96.4,129.1,95.1,130.8,95.1z"/>
	</g>
	<g>
		<path d="M0,0"/>
		<path d="M161.7,93.7h2.4l0,0c2.2,0,4,1.8,4,4v2.4l0,0c0,2.2-1.8,4-4,4h-2.4l0,0c-2.2,0-4-1.8-4-4v-2.4l0,0
			C157.7,95.5,159.5,93.7,161.7,93.7z"/>
	</g>
	<g>
		<path d="M0,0"/>
		<path d="M187.2,95.8L187.2,95.8L187.2,95.8c1.9,0,3.4,1.5,3.4,3.4l0,0l0,0c0,1.9-1.5,3.4-3.4,3.4l0,0l0,0c-1.9,0-3.4-1.5-3.4-3.4
			l0,0l0,0C183.9,97.3,185.4,95.8,187.2,95.8z"/>
	</g>
	<g>
		<path d="M0,0"/>
		<path d="M13.2,101.3h2.7l0,0c2.2,0,4,1.8,4,4v2.7l0,0c0,2.2-1.8,4-4,4h-2.7l0,0c-2.2,0-4-1.8-4-4v-2.7l0,0
			C9.2,103,11,101.3,13.2,101.3z"/>
	</g>
	<g>
		<path d="M0,0"/>
		<path d="M23.6,106.5L23.6,106.5L23.6,106.5c0.3,0,0.5,0.2,0.5,0.5l0,0l0,0l0,0c0,0.3-0.2,0.5-0.5,0.5l0,0l0,0l0,0
			c-0.3,0-0.5-0.2-0.5-0.5l0,0l0,0l0,0C23.1,106.7,23.3,106.5,23.6,106.5L23.6,106.5z"/>
	</g>
	<g>
		<path d="M0,0"/>
		<path d="M38.4,105.5L38.4,105.5L38.4,105.5c0.3,0,0.6,0.3,0.6,0.6l0,0l0,0c0,0.3-0.3,0.6-0.6,0.6l0,0l0,0l0,0
			c-0.3,0-0.6-0.3-0.6-0.6l0,0l0,0l0,0C37.8,105.8,38,105.5,38.4,105.5z"/>
	</g>
	<g>
		<path d="M0,0"/>
		<path d="M54.8,106.1L54.8,106.1L54.8,106.1c0.7,0,1.3,0.6,1.3,1.3l0,0l0,0c0,0.7-0.6,1.3-1.3,1.3l0,0l0,0c-0.7,0-1.3-0.6-1.3-1.3
			l0,0l0,0C53.5,106.7,54.1,106.1,54.8,106.1z"/>
	</g>
	<g>
		<path d="M0,0"/>
		<path d="M77.3,102.1h1.4l0,0c2.2,0,4,1.8,4,4v1.4l0,0c0,2.2-1.8,4-4,4h-1.4l0,0c-2.2,0-4-1.8-4-4v-1.4l0,0
			C73.3,103.9,75.1,102.1,77.3,102.1z"/>
	</g>
	<g>
		<path d="M0,0"/>
		<path d="M95.4,106L95.4,106L95.4,106c0.7,0,1.3,0.6,1.3,1.3l0,0l0,0c0,0.7-0.6,1.3-1.3,1.3l0,0l0,0c-0.7,0-1.3-0.6-1.3-1.3l0,0
			l0,0C94.1,106.6,94.7,106,95.4,106z"/>
	</g>
	<g>
		<path d="M0,0"/>
		<path d="M102.6,106.7L102.6,106.7L102.6,106.7C102.6,106.7,102.6,106.7,102.6,106.7L102.6,106.7L102.6,106.7
			C102.6,106.7,102.6,106.7,102.6,106.7L102.6,106.7L102.6,106.7C102.6,106.7,102.6,106.7,102.6,106.7L102.6,106.7L102.6,106.7
			C102.6,106.7,102.6,106.7,102.6,106.7z"/>
	</g>
	<g>
		<path d="M0,0"/>
		<path d="M118,101.7h3.5l0,0c2.2,0,4,1.8,4,4v3.5l0,0c0,2.2-1.8,4-4,4H118l0,0c-2.2,0-4-1.8-4-4v-3.5l0,0
			C114,103.5,115.8,101.7,118,101.7z"/>
	</g>
	<g>
		<path d="M0,0"/>
		<path d="M134.9,105L134.9,105L134.9,105c1.2,0,2.2,1,2.2,2.2l0,0l0,0l0,0c0,1.2-1,2.2-2.2,2.2l0,0l0,0l0,0c-1.2,0-2.2-1-2.2-2.2
			l0,0l0,0l0,0C132.7,106,133.7,105,134.9,105L134.9,105z"/>
	</g>
	<g>
		<path d="M0,0"/>
		<path d="M143.1,104.7L143.1,104.7L143.1,104.7c1.4,0,2.5,1.1,2.5,2.5l0,0l0,0l0,0c0,1.4-1.1,2.5-2.5,2.5l0,0l0,0
			c-1.4,0-2.5-1.1-2.5-2.5l0,0l0,0C140.6,105.8,141.7,104.7,143.1,104.7L143.1,104.7z"/>
	</g>
	<g>
		<path d="M0,0"/>
		<path d="M159,105.7L159,105.7L159,105.7c0.7,0,1.2,0.5,1.2,1.2l0,0l0,0c0,0.7-0.5,1.2-1.2,1.2l0,0l0,0l0,0c-0.7,0-1.2-0.5-1.2-1.2
			l0,0l0,0l0,0C157.8,106.2,158.4,105.7,159,105.7z"/>
	</g>
	<g>
		<path d="M0,0"/>
		<path d="M166.7,102.7h1l0,0c2.2,0,4,1.8,4,4v1l0,0c0,2.2-1.8,4-4,4h-1l0,0c-2.2,0-4-1.8-4-4v-1l0,0
			C162.7,104.5,164.5,102.7,166.7,102.7z"/>
	</g>
	<g>
		<path d="M0,0"/>
		<path d="M183,106L183,106L183,106c0.4,0,0.8,0.3,0.8,0.8l0,0l0,0c0,0.4-0.3,0.8-0.8,0.8l0,0l0,0l0,0c-0.4,0-0.8-0.3-0.8-0.8l0,0
			l0,0l0,0C182.2,106.3,182.6,106,183,106z"/>
	</g>
	<g>
		<path d="M0,0"/>
		<path d="M199.1,105.7L199.1,105.7L199.1,105.7c0.8,0,1.5,0.7,1.5,1.5l0,0l0,0c0,0.8-0.7,1.5-1.5,1.5l0,0l0,0
			c-0.8,0-1.5-0.7-1.5-1.5l0,0l0,0C197.6,106.4,198.3,105.7,199.1,105.7z"/>
	</g>
	<g>
		<path d="M0,0"/>
		<path d="M1.4,109.3h3.4l0,0c2.2,0,4,1.8,4,4v3.4l0,0c0,2.2-1.8,4-4,4H1.4l0,0c-2.2,0-4-1.8-4-4v-3.4l0,0
			C-2.6,111-0.9,109.3,1.4,109.3z"/>
	</g>
	<g>
		<path d="M0,0"/>
		<path d="M19,110.8L19,110.8L19,110.8c2.2,0,4,1.8,4,4l0,0l0,0c0,2.2-1.8,4-4,4l0,0l0,0c-2.2,0-4-1.8-4-4l0,0l0,0
			C15,112.6,16.8,110.8,19,110.8z"/>
	</g>
	<g>
		<path d="M0,0"/>
		<path d="M26.5,113L26.5,113L26.5,113c1.1,0,1.9,0.9,1.9,1.9l0,0l0,0l0,0c0,1.1-0.9,1.9-1.9,1.9l0,0l0,0l0,0
			c-1.1,0-1.9-0.9-1.9-1.9l0,0l0,0l0,0C24.5,113.8,25.4,113,26.5,113L26.5,113z"/>
	</g>
	<g>
		<path d="M0,0"/>
		<path d="M43.1,113.1L43.1,113.1L43.1,113.1c0.4,0,0.8,0.3,0.8,0.8l0,0l0,0c0,0.4-0.3,0.8-0.8,0.8l0,0l0,0c-0.4,0-0.8-0.3-0.8-0.8
			l0,0l0,0C42.3,113.4,42.6,113.1,43.1,113.1z"/>
	</g>
	<g>
		<path d="M0,0"/>
		<path d="M56.6,108.7H60l0,0c2.2,0,4,1.8,4,4v3.3l0,0c0,2.2-1.8,4-4,4h-3.3l0,0c-2.2,0-4-1.8-4-4v-3.3l0,0
			C52.6,110.5,54.4,108.7,56.6,108.7z"/>
	</g>
	<g>
		<path d="M0,0"/>
		<path d="M66.2,112.4L66.2,112.4L66.2,112.4c1.1,0,2,0.9,2,2l0,0l0,0c0,1.1-0.9,2-2,2l0,0l0,0c-1.1,0-2-0.9-2-2l0,0l0,0
			C64.2,113.3,65.1,112.4,66.2,112.4z"/>
	</g>
	<g>
		<path d="M0,0"/>
		<path d="M81.7,108.8h3.5l0,0c2.2,0,4,1.8,4,4v3.5l0,0c0,2.2-1.8,4-4,4h-3.5l0,0c-2.2,0-4-1.8-4-4v-3.5l0,0
			C77.7,110.5,79.5,108.8,81.7,108.8z"/>
	</g>
	<g>
		<path d="M0,0"/>
		<path d="M114.7,110.5L114.7,110.5L114.7,110.5c2.3,0,4.1,1.8,4.1,4v0.1l0,0c0,2.2-1.8,4-4,4h-0.1l0,0c-2.2,0-4-1.8-4-4v-0.1l0,0
			C110.7,112.3,112.5,110.5,114.7,110.5z"/>
	</g>
	<g>
		<path d="M0,0"/>
		<path d="M122.8,111.8L122.8,111.8L122.8,111.8c1.8,0,3.3,1.5,3.3,3.3l0,0l0,0c0,1.8-1.5,3.3-3.3,3.3l0,0l0,0
			c-1.8,0-3.3-1.5-3.3-3.3l0,0l0,0C119.5,113.3,121,111.8,122.8,111.8z"/>
	</g>
	<g>
		<path d="M0,0"/>
		<path d="M137.2,109.1h3.6l0,0c2.2,0,4,1.8,4,4v3.6l0,0c0,2.2-1.8,4-4,4h-3.6l0,0c-2.2,0-4-1.8-4-4v-3.6l0,0
			C133.2,110.8,135,109.1,137.2,109.1z"/>
	</g>
	<g>
		<path d="M0,0"/>
		<path d="M155.1,113.7L155.1,113.7L155.1,113.7c0.8,0,1.5,0.7,1.5,1.5l0,0l0,0c0,0.8-0.7,1.5-1.5,1.5l0,0l0,0
			c-0.8,0-1.5-0.7-1.5-1.5l0,0l0,0C153.7,114.4,154.3,113.7,155.1,113.7z"/>
	</g>
	<g>
		<path d="M0,0"/>
		<path d="M162.1,109.8h2.5l0,0c2.2,0,4,1.8,4,4v2.5l0,0c0,2.2-1.8,4-4,4h-2.5l0,0c-2.2,0-4-1.8-4-4v-2.5l0,0
			C158.1,111.6,159.9,109.8,162.1,109.8z"/>
	</g>
	<g>
		<path d="M0,0"/>
		<path d="M187.5,110.2h0.1l0,0c2.2,0,4,1.8,4,4v0.1l0,0c0,2.2-1.8,4-4,4h-0.1l0,0c-2.2,0-4-1.8-4-4v-0.1l0,0
			C183.5,112,185.2,110.2,187.5,110.2z"/>
	</g>
	<g>
		<path d="M0,0"/>
		<path d="M194.7,113.4L194.7,113.4L194.7,113.4c0.3,0,0.6,0.3,0.6,0.6l0,0l0,0l0,0c0,0.3-0.3,0.6-0.6,0.6l0,0l0,0
			c-0.3,0-0.6-0.3-0.6-0.6l0,0l0,0C194.1,113.7,194.4,113.4,194.7,113.4L194.7,113.4z"/>
	</g>
	<g>
		<path d="M0,0"/>
		<path d="M15.3,121.8L15.3,121.8L15.3,121.8c0.7,0,1.3,0.6,1.3,1.3l0,0l0,0c0,0.7-0.6,1.3-1.3,1.3l0,0l0,0c-0.7,0-1.3-0.6-1.3-1.3
			l0,0l0,0l0,0C13.9,122.4,14.5,121.8,15.3,121.8L15.3,121.8z"/>
	</g>
	<g>
		<path d="M0,0"/>
		<path d="M22.9,121.7L22.9,121.7L22.9,121.7c0.5,0,1,0.4,1,1l0,0l0,0c0,0.5-0.4,1-1,1l0,0l0,0c-0.5,0-1-0.4-1-1l0,0l0,0
			C21.9,122.1,22.4,121.7,22.9,121.7z"/>
	</g>
	<g>
		<path d="M0,0"/>
		<path d="M38.5,118.7L38.5,118.7L38.5,118.7c1.7,0,3,1.4,3,3l0,0l0,0c0,1.7-1.4,3-3,3l0,0l0,0c-1.7,0-3-1.4-3-3l0,0l0,0
			C35.5,120,36.8,118.7,38.5,118.7z"/>
	</g>
	<g>
		<path d="M0,0"/>
		<path d="M60.8,117.4h3.2l0,0c2.2,0,4,1.8,4,4v3.2l0,0c0,2.2-1.8,4-4,4c0,0,0,0,0,0h-3.2l0,0c-2.2,0-4-1.8-4-4v0v-3.2l0,0
			C56.8,119.2,58.6,117.4,60.8,117.4z"/>
	</g>
	<g>
		<path d="M0,0"/>
		<path d="M70.6,120.1L70.6,120.1L70.6,120.1c1.4,0,2.5,1.1,2.5,2.5l0,0l0,0c0,1.4-1.1,2.5-2.5,2.5l0,0l0,0c-1.4,0-2.5-1.1-2.5-2.5
			l0,0l0,0C68.1,121.3,69.2,120.1,70.6,120.1z"/>
	</g>
	<g>
		<path d="M0,0"/>
		<path d="M92.7,117.3h2.9l0,0c2.2,0,4,1.8,4,4v2.9l0,0c0,2.2-1.8,4-4,4h-2.9l0,0c-2.2,0-4-1.8-4-4v-2.9l0,0
			C88.7,119.1,90.5,117.3,92.7,117.3z"/>
	</g>
	<g>
		<path d="M0,0"/>
		<path d="M101.3,117.5h3.7l0,0c2.2,0,4,1.8,4,4v3.7l0,0c0,2.2-1.8,4-4,4h0h-3.7l0,0c-2.2,0-4-1.8-4-4v0v-3.7l0,0
			C97.3,119.2,99.1,117.5,101.3,117.5z"/>
	</g>
	<g>
		<path d="M0,0"/>
		<path d="M107.8,117h3.8l0,0c2.2,0,4,1.8,4,4v3.8l0,0c0,2.2-1.8,4-4,4h-3.8l0,0c-2.2,0-4-1.8-4-4V121l0,0
			C103.8,118.8,105.6,117,107.8,117z"/>
	</g>
	<g>
		<path d="M0,0"/>
		<path d="M118.3,118.1h0.5l0,0c2.2,0,4,1.8,4,4v0.5l0,0c0,2.2-1.8,4-4,4h-0.5l0,0c-2.2,0-4-1.8-4-4v-0.5l0,0
			C114.3,119.9,116.1,118.1,118.3,118.1z"/>
	</g>
	<g>
		<path d="M0,0"/>
		<path d="M140.4,117.3h3.7l0,0c2.2,0,4,1.8,4,4v3.7l0,0c0,2.2-1.8,4-4,4h-3.7l0,0c-2.2,0-4-1.8-4-4v-3.7l0,0
			C136.4,119.1,138.2,117.3,140.4,117.3z"/>
	</g>
	<g>
		<path d="M0,0"/>
		<path d="M166.7,118.1h0.6l0,0c2.2,0,4,1.8,4,4v0.6l0,0c0,2.2-1.8,4-4,4h-0.6l0,0c-2.2,0-4-1.8-4-4v-0.6l0,0
			C162.7,119.9,164.5,118.1,166.7,118.1z"/>
	</g>
	<g>
		<path d="M0,0"/>
		<path d="M181.4,117.2h3.9l0,0c2.2,0,4,1.8,4,4v3.9l0,0c0,2.2-1.8,4-4,4h-3.9l0,0c-2.2,0-4-1.8-4-4v-3.9l0,0
			C177.4,119,179.2,117.2,181.4,117.2z"/>
	</g>
	<g>
		<path d="M0,0"/>
		<path d="M199.5,120L199.5,120L199.5,120c1.3,0,2.3,1,2.3,2.3l0,0l0,0c0,1.3-1,2.3-2.3,2.3l0,0l0,0c-1.3,0-2.3-1-2.3-2.3l0,0l0,0
			C197.2,121,198.3,120,199.5,120z"/>
	</g>
	<g>
		<path d="M0,0"/>
		<path d="M18.2,125.9h2.4l0,0c2.2,0,4,1.8,4,4v2.4l0,0c0,2.2-1.8,4-4,4h-2.4l0,0c-2.2,0-4-1.8-4-4v-2.4l0,0
			C14.2,127.7,16,125.9,18.2,125.9z"/>
	</g>
	<g>
		<path d="M0,0"/>
		<path d="M66.2,126h2.4l0,0c2.2,0,4,1.8,4,4v2.4l0,0c0,2.2-1.8,4-4,4h-2.4l0,0c-2.2,0-4-1.8-4-4V130l0,0
			C62.2,127.8,64,126,66.2,126z"/>
	</g>
	<g>
		<path d="M0,0"/>
		<path d="M73.5,125h3.1l0,0c2.2,0,4,1.8,4,4v3.1l0,0c0,2.2-1.8,4-4,4h-3.1l0,0c-2.2,0-4-1.8-4-4V129l0,0
			C69.5,126.8,71.3,125,73.5,125z"/>
	</g>
	<g>
		<path d="M0,0"/>
		<path d="M130.2,127.1L130.2,127.1L130.2,127.1c1.8,0,3.3,1.5,3.3,3.3l0,0l0,0c0,1.8-1.5,3.3-3.3,3.3l0,0l0,0
			c-1.8,0-3.3-1.5-3.3-3.3l0,0l0,0C126.9,128.6,128.4,127.1,130.2,127.1z"/>
	</g>
	<g>
		<path d="M0,0"/>
		<path d="M137.6,124.6h3.3l0,0c2.2,0,4,1.8,4,4v3.3l0,0c0,2.2-1.8,4-4,4h-3.3l0,0c-2.2,0-4-1.8-4-4v-3.3l0,0
			C133.6,126.4,135.4,124.6,137.6,124.6z"/>
	</g>
	<g>
		<path d="M0,0"/>
		<path d="M161.8,126.3h2l0,0c2.2,0,4,1.8,4,4v2l0,0c0,2.2-1.8,4-4,4h-2l0,0c-2.2,0-4-1.8-4-4v-2l0,0
			C157.8,128.1,159.6,126.3,161.8,126.3z"/>
	</g>
	<g>
		<path d="M0,0"/>
		<path d="M179.5,126.7h0.7l0,0c2.2,0,4,1.8,4,4v0.7l0,0c0,2.2-1.8,4-4,4h-0.7l0,0c-2.2,0-4-1.8-4-4v-0.7l0,0
			C175.5,128.5,177.3,126.7,179.5,126.7z"/>
	</g>
	<g>
		<path d="M0,0"/>
		<path d="M194.8,129L194.8,129L194.8,129c0.6,0,1.1,0.5,1.1,1.1l0,0l0,0l0,0c0,0.6-0.5,1.1-1.1,1.1l0,0l0,0l0,0
			c-0.6,0-1.1-0.5-1.1-1.1l0,0l0,0l0,0C193.7,129.5,194.2,129,194.8,129L194.8,129z"/>
	</g>
	<g>
		<path d="M0,0"/>
		<path d="M4.8,133.6h3.1l0,0c2.2,0,4,1.8,4,4l0,0v3.1l0,0c0,2.2-1.8,4-4,4h0H4.8l0,0c-2.2,0-4-1.8-4-4v-3.1l0,0
			C0.8,135.4,2.6,133.6,4.8,133.6z"/>
	</g>
	<g>
		<path d="M0,0"/>
		<path d="M15,134.5h0.6l0,0c2.2,0,4,1.8,4,4v0.6l0,0c0,2.2-1.8,4-4,4H15l0,0c-2.2,0-4-1.8-4-4v-0.6l0,0
			C11,136.3,12.8,134.5,15,134.5z"/>
	</g>
	<g>
		<path d="M0,0"/>
		<path d="M21.7,133.2h3l0,0c2.2,0,4,1.8,4,4v3l0,0c0,2.2-1.8,4-4,4h-3l0,0c-2.2,0-4-1.8-4-4v-3l0,0C17.7,135,19.5,133.2,21.7,133.2
			z"/>
	</g>
	<g>
		<path d="M0,0"/>
		<path d="M30.9,137.1L30.9,137.1L30.9,137.1c1.2,0,2.2,1,2.2,2.2l0,0l0,0c0,1.2-1,2.2-2.2,2.2l0,0l0,0c-1.2,0-2.2-1-2.2-2.2l0,0
			l0,0C28.6,138.1,29.6,137.1,30.9,137.1z"/>
	</g>
	<g>
		<path d="M0,0"/>
		<path d="M47.6,137.4L47.6,137.4L47.6,137.4c0.7,0,1.2,0.5,1.2,1.2l0,0l0,0c0,0.7-0.5,1.2-1.2,1.2l0,0l0,0c-0.7,0-1.2-0.5-1.2-1.2
			l0,0l0,0C46.4,138,46.9,137.4,47.6,137.4z"/>
	</g>
	<g>
		<path d="M0,0"/>
		<path d="M62.7,138.1L62.7,138.1L62.7,138.1c0.5,0,0.8,0.4,0.8,0.8l0,0l0,0c0,0.5-0.4,0.8-0.8,0.8l0,0l0,0c-0.5,0-0.8-0.4-0.8-0.8
			l0,0l0,0C61.9,138.5,62.2,138.1,62.7,138.1z"/>
	</g>
	<g>
		<path d="M0,0"/>
		<path d="M77.3,133h3.6l0,0c2.2,0,4,1.8,4,4v3.6l0,0c0,2.2-1.8,4-4,4h-3.6l0,0c-2.2,0-4-1.8-4-4V137l0,0
			C73.3,134.8,75,133,77.3,133z"/>
	</g>
	<g>
		<path d="M0,0"/>
		<path d="M86.7,134h0.1l0,0c2.2,0,4,1.8,4,4v0.1l0,0c0,2.2-1.8,4-4,4h-0.1l0,0c-2.2,0-4-1.8-4-4V138l0,0
			C82.7,135.8,84.4,134,86.7,134z"/>
	</g>
	<g>
		<path d="M0,0"/>
		<path d="M125.6,134.2h2.8l0,0c2.2,0,4,1.8,4,4v2.8l0,0c0,2.2-1.8,4-4,4h-2.8l0,0c-2.2,0-4-1.8-4-4v-2.8l0,0
			C121.6,136,123.4,134.2,125.6,134.2z"/>
	</g>
	<g>
		<path d="M0,0"/>
		<path d="M157.5,133.5h1.9l0,0c2.2,0,4,1.8,4,4v1.9l0,0c0,2.2-1.8,4-4,4h-1.9l0,0c-2.2,0-4-1.8-4-4v-1.9l0,0
			C153.5,135.3,155.3,133.5,157.5,133.5z"/>
	</g>
	<g>
		<path d="M0,0"/>
		<path d="M181,133.9h1.6l0,0c2.2,0,4,1.8,4,4v1.6l0,0c0,2.2-1.8,4-4,4H181l0,0c-2.2,0-4-1.8-4-4v-1.6l0,0
			C177,135.7,178.8,133.9,181,133.9z"/>
	</g>
	<g>
		<path d="M0,0"/>
		<path d="M190.8,134.8h0.5l0,0c2.2,0,4,1.8,4,4v0.5l0,0c0,2.2-1.8,4-4,4h-0.5l0,0c-2.2,0-4-1.8-4-4v-0.5l0,0
			C186.8,136.6,188.6,134.8,190.8,134.8z"/>
	</g>
	<g>
		<path d="M0,0"/>
		<path d="M197.6,134.3h1.4l0,0c2.2,0,4,1.8,4,4v1.4l0,0c0,2.2-1.8,4-4,4h-1.4l0,0c-2.2,0-4-1.8-4-4v-1.4l0,0
			C193.6,136.1,195.4,134.3,197.6,134.3z"/>
	</g>
	<g>
		<path d="M0,0"/>
		<path d="M26.7,142h0.9l0,0c2.2,0,4,1.8,4,4v0.9l0,0c0,2.2-1.8,4-4,4h-0.9l0,0c-2.2,0-4-1.8-4-4V146l0,0
			C22.7,143.8,24.4,142,26.7,142z"/>
	</g>
	<g>
		<path d="M0,0"/>
		<path d="M33.8,141.9h1.6l0,0c2.2,0,4,1.8,4,4v1.6l0,0c0,2.2-1.8,4-4,4h-1.6l0,0c-2.2,0-4-1.8-4-4v-1.6l0,0
			C29.8,143.6,31.6,141.9,33.8,141.9z"/>
	</g>
	<g>
		<path d="M0,0"/>
		<path d="M57.8,141.6h2.3l0,0c2.2,0,4,1.8,4,4v2.3l0,0c0,2.2-1.8,4-4,4h-2.3l0,0c-2.2,0-4-1.8-4-4v-2.3l0,0
			C53.8,143.4,55.6,141.6,57.8,141.6z"/>
	</g>
	<g>
		<path d="M0,0"/>
		<path d="M89.9,141.8h2.7l0,0c2.2,0,4,1.8,4,4v2.7l0,0c0,2.2-1.8,4-4,4h-2.7l0,0c-2.2,0-4-1.8-4-4v-2.7l0,0
			C85.9,143.6,87.7,141.8,89.9,141.8z"/>
	</g>
	<g>
		<path d="M0,0"/>
		<path d="M98.1,142h3.5l0,0c2.2,0,4,1.8,4,4v3.5l0,0c0,2.2-1.8,4-4,4h-3.5l0,0c-2.2,0-4-1.8-4-4V146l0,0
			C94.1,143.8,95.9,142,98.1,142z"/>
	</g>
	<g>
		<path d="M0,0"/>
		<path d="M105.5,141h3.3l0,0c2.2,0,4,1.8,4,4v3.3l0,0c0,2.2-1.8,4-4,4h-3.3l0,0c-2.2,0-4-1.8-4-4V145l0,0
			C101.5,142.8,103.3,141,105.5,141z"/>
	</g>
	<g>
		<path d="M0,0"/>
		<path d="M113,141.4h3.6l0,0c2.2,0,4,1.8,4,4v3.6l0,0c0,2.2-1.8,4-4,4H113l0,0c-2.2,0-4-1.8-4-4v-3.6l0,0
			C109,143.2,110.8,141.4,113,141.4z"/>
	</g>
	<g>
		<path d="M0,0"/>
		<path d="M120.7,140.9h3.9l0,0c2.2,0,4,1.8,4,4c0,0,0,0,0,0v3.9l0,0c0,2.2-1.8,4-4,4h0h-3.9l0,0c-2.2,0-4-1.8-4-4v-3.9l0,0
			C116.7,142.6,118.4,140.9,120.7,140.9z"/>
	</g>
	<g>
		<path d="M0,0"/>
		<path d="M154.7,142.7L154.7,142.7L154.7,142.7c2.2,0,4,1.8,4,4l0,0l0,0c0,2.2-1.8,4-4,4l0,0l0,0c-2.2,0-4-1.8-4-4l0,0l0,0
			C150.7,144.5,152.5,142.7,154.7,142.7z"/>
	</g>
	<g>
		<path d="M0,0"/>
		<path d="M170.6,144.2L170.6,144.2L170.6,144.2c1.5,0,2.8,1.3,2.8,2.8l0,0l0,0c0,1.5-1.3,2.8-2.8,2.8l0,0l0,0
			c-1.5,0-2.8-1.3-2.8-2.8l0,0l0,0C167.8,145.5,169.1,144.2,170.6,144.2z"/>
	</g>
	<g>
		<path d="M0,0"/>
		<path d="M187.3,144.6L187.3,144.6L187.3,144.6c1.3,0,2.4,1.1,2.4,2.4l0,0l0,0c0,1.3-1.1,2.4-2.4,2.4l0,0l0,0
			c-1.3,0-2.4-1.1-2.4-2.4l0,0l0,0C184.8,145.7,185.9,144.6,187.3,144.6z"/>
	</g>
	<g>
		<path d="M0,0"/>
		<path d="M194.1,141.5h3l0,0c2.2,0,4,1.8,4,4v3l0,0c0,2.2-1.8,4-4,4h-3l0,0c-2.2,0-4-1.8-4-4v-3l0,0
			C190.1,143.3,191.9,141.5,194.1,141.5z"/>
	</g>
	<g>
		<path d="M0,0"/>
		<path d="M5.4,148.8H8l0,0c2.2,0,4,1.8,4,4l0,0v2.6l0,0c0,2.2-1.8,4-4,4h0H5.4l0,0c-2.2,0-4-1.8-4-4v-2.6l0,0
			C1.4,150.5,3.1,148.8,5.4,148.8z"/>
	</g>
	<g>
		<path d="M0,0"/>
		<path d="M13.8,150.8h0.8l0,0c2.2,0,4,1.8,4,4l0,0v0.8l0,0c0,2.2-1.8,4-4,4h0h-0.8l0,0c-2.2,0-4-1.8-4-4v-0.8l0,0
			C9.8,152.6,11.6,150.8,13.8,150.8z"/>
	</g>
	<g>
		<path d="M0,0"/>
		<path d="M36.7,148.8h3.2l0,0c2.2,0,4,1.8,4,4v3.2l0,0c0,2.2-1.8,4-4,4h-3.2l0,0c-2.2,0-4-1.8-4-4v-3.2l0,0
			C32.7,150.6,34.5,148.8,36.7,148.8z"/>
	</g>
	<g>
		<path d="M0,0"/>
		<path d="M45.6,152.3L45.6,152.3L45.6,152.3c2.1,0,3.8,1.7,3.8,3.8l0,0l0,0c0,2.1-1.7,3.8-3.8,3.8l0,0l0,0l0,0
			c-2.1,0-3.8-1.7-3.8-3.8l0,0l0,0l0,0C41.8,154,43.5,152.3,45.6,152.3z"/>
	</g>
	<g>
		<path d="M0,0"/>
		<path d="M70,150h3l0,0c2.2,0,4,1.8,4,4v3l0,0c0,2.2-1.8,4-4,4h-3l0,0c-2.2,0-4-1.8-4-4v-3l0,0C66,151.8,67.7,150,70,150z"/>
	</g>
	<g>
		<path d="M0,0"/>
		<path d="M150.8,151.3L150.8,151.3L150.8,151.3c2.1,0,3.7,1.7,3.7,3.7l0,0l0,0l0,0c0,2.1-1.7,3.7-3.7,3.7l0,0l0,0
			c-2.1,0-3.7-1.7-3.7-3.7l0,0l0,0C147,153,148.7,151.3,150.8,151.3L150.8,151.3z"/>
	</g>
	<g>
		<path d="M0,0"/>
		<path d="M166.4,152.6L166.4,152.6L166.4,152.6c1.5,0,2.7,1.2,2.7,2.7l0,0l0,0c0,1.5-1.2,2.7-2.7,2.7l0,0l0,0
			c-1.5,0-2.7-1.2-2.7-2.7l0,0l0,0C163.6,153.8,164.8,152.6,166.4,152.6z"/>
	</g>
	<g>
		<path d="M0,0"/>
		<path d="M190,149.6h2.1l0,0c2.2,0,4,1.8,4,4v2.1l0,0c0,2.2-1.8,4-4,4H190l0,0c-2.2,0-4-1.8-4-4v-2.1l0,0
			C186,151.4,187.8,149.6,190,149.6z"/>
	</g>
	<g>
		<path d="M0,0"/>
		<path d="M197.1,149.8h2.4l0,0c2.2,0,4,1.8,4,4v2.4l0,0c0,2.2-1.8,4-4,4h-2.4l0,0c-2.2,0-4-1.8-4-4v-2.4l0,0
			C193.1,151.6,194.9,149.8,197.1,149.8z"/>
	</g>
	<g>
		<path d="M0,0"/>
		<path d="M3.4,158.4h0.2l0,0c2.2,0,4,1.8,4,4v0.2l0,0c0,2.2-1.8,4-4,4H3.4l0,0c-2.2,0-4-1.8-4-4v-0.2l0,0
			C-0.6,160.2,1.2,158.4,3.4,158.4z"/>
	</g>
	<g>
		<path d="M0,0"/>
		<path d="M10.6,158.8H12l0,0c2.2,0,4,1.8,4,4v1.5l0,0c0,2.2-1.8,4-4,4h-1.5l0,0c-2.2,0-4-1.8-4-4v-1.5l0,0
			C6.6,160.6,8.4,158.8,10.6,158.8z"/>
	</g>
	<g>
		<path d="M0,0"/>
		<path d="M18.4,159.5h0.3l0,0c2.2,0,4,1.8,4,4v0.3l0,0c0,2.2-1.8,4-4,4h-0.3l0,0c-2.2,0-4-1.8-4-4v-0.3l0,0
			C14.4,161.3,16.2,159.5,18.4,159.5z"/>
	</g>
	<g>
		<path d="M0,0"/>
		<path d="M41,157.3h3.1l0,0c2.2,0,4,1.8,4,4v3.1l0,0c0,2.2-1.8,4-4,4H41l0,0c-2.2,0-4-1.8-4-4v-3.1l0,0C37,159,38.8,157.3,41,157.3
			z"/>
	</g>
	<g>
		<path d="M0,0"/>
		<path d="M51.1,158.9h0.2l0,0c2.2,0,4,1.8,4,4v0.2l0,0c0,2.2-1.8,4-4,4h-0.2l0,0c-2.2,0-4-1.8-4-4v-0.2l0,0
			C47.1,160.7,48.9,158.9,51.1,158.9z"/>
	</g>
	<g>
		<path d="M0,0"/>
		<path d="M82.8,158H84l0,0c2.2,0,4,1.8,4,4v1.1l0,0c0,2.2-1.8,4-4,4h-1.1l0,0c-2.2,0-4-1.8-4-4V162l0,0
			C78.8,159.8,80.6,158,82.8,158z"/>
	</g>
	<g>
		<path d="M0,0"/>
		<path d="M91.3,161.8L91.3,161.8L91.3,161.8c0.8,0,1.4,0.6,1.4,1.4l0,0l0,0c0,0.8-0.6,1.4-1.4,1.4l0,0l0,0c-0.8,0-1.4-0.6-1.4-1.4
			l0,0l0,0C89.9,162.4,90.5,161.8,91.3,161.8z"/>
	</g>
	<g>
		<path d="M0,0"/>
		<path d="M130.7,158.8h0.4l0,0c2.2,0,4,1.8,4,4v0.4l0,0c0,2.2-1.8,4-4,4h-0.4l0,0c-2.2,0-4-1.8-4-4v-0.4l0,0
			C126.7,160.5,128.5,158.8,130.7,158.8z"/>
	</g>
	<g>
		<path d="M0,0"/>
		<path d="M138.9,159.6L138.9,159.6L138.9,159.6c1.9,0,3.5,1.6,3.5,3.5l0,0l0,0l0,0c0,1.9-1.6,3.5-3.5,3.5l0,0l0,0
			c-1.9,0-3.5-1.6-3.5-3.5l0,0l0,0C135.4,161.2,137,159.6,138.9,159.6L138.9,159.6z"/>
	</g>
	<g>
		<path d="M0,0"/>
		<path d="M161.8,156.6h3.3l0,0c2.2,0,4,1.8,4,4v3.3l0,0c0,2.2-1.8,4-4,4h-3.3l0,0c-2.2,0-4-1.8-4-4v-3.3l0,0
			C157.8,158.4,159.6,156.6,161.8,156.6z"/>
	</g>
	<g>
		<path d="M0,0"/>
		<path d="M186.1,156.8h2.7l0,0c2.2,0,4,1.8,4,4v2.7l0,0c0,2.2-1.8,4-4,4h-2.7l0,0c-2.2,0-4-1.8-4-4v-2.7l0,0
			C182.1,158.6,183.9,156.8,186.1,156.8z"/>
	</g>
	<g>
		<path d="M0,0"/>
		<path d="M193.3,157.3h3.2l0,0c2.2,0,4,1.8,4,4v3.2l0,0c0,2.2-1.8,4-4,4h-3.2l0,0c-2.2,0-4-1.8-4-4v-3.2l0,0
			C189.3,159.1,191.1,157.3,193.3,157.3z"/>
	</g>
	<g>
		<path d="M0,0"/>
		<path d="M5.5,165.3h2.6l0,0c2.2,0,4,1.8,4,4v2.6l0,0c0,2.2-1.8,4-4,4H5.5l0,0c-2.2,0-4-1.8-4-4v-2.6l0,0
			C1.5,167.1,3.3,165.3,5.5,165.3z"/>
	</g>
	<g>
		<path d="M0,0"/>
		<path d="M14.8,168.1L14.8,168.1L14.8,168.1c1.4,0,2.5,1.1,2.5,2.5l0,0l0,0l0,0c0,1.4-1.1,2.5-2.5,2.5l0,0l0,0l0,0
			c-1.4,0-2.5-1.1-2.5-2.5l0,0l0,0l0,0C12.3,169.3,13.4,168.1,14.8,168.1L14.8,168.1z"/>
	</g>
	<g>
		<path d="M0,0"/>
		<path d="M21.3,164.8h3.2l0,0c2.2,0,4,1.8,4,4v3.2l0,0c0,2.2-1.8,4-4,4h-3.2l0,0c-2.2,0-4-1.8-4-4v-3.2l0,0
			C17.3,166.6,19.1,164.8,21.3,164.8z"/>
	</g>
	<g>
		<path d="M0,0"/>
		<path d="M54.6,166.2h1.5l0,0c2.2,0,4,1.8,4,4v1.5l0,0c0,2.2-1.8,4-4,4h-1.5l0,0c-2.2,0-4-1.8-4-4v-1.5l0,0
			C50.6,168,52.4,166.2,54.6,166.2z"/>
	</g>
	<g>
		<path d="M0,0"/>
		<path d="M63.2,169L63.2,169L63.2,169c1,0,1.8,0.8,1.8,1.8l0,0l0,0l0,0c0,1-0.8,1.8-1.8,1.8l0,0l0,0l0,0c-1,0-1.8-0.8-1.8-1.8l0,0
			l0,0l0,0C61.4,169.8,62.2,169,63.2,169L63.2,169z"/>
	</g>
	<g>
		<path d="M0,0"/>
		<path d="M101.4,165h2.8l0,0c2.2,0,4,1.8,4,4v2.8l0,0c0,2.2-1.8,4-4,4h-2.8l0,0c-2.2,0-4-1.8-4-4V169l0,0
			C97.4,166.7,99.2,165,101.4,165z"/>
	</g>
	<g>
		<path d="M0,0"/>
		<path d="M108.6,165.7h4l0,0c2.2,0,4,1.8,4,4v4l0,0c0,2.2-1.8,4-4,4h-4l0,0c-2.2,0-4-1.8-4-4v-4l0,0
			C104.6,167.5,106.4,165.7,108.6,165.7z"/>
	</g>
	<g>
		<path d="M0,0"/>
		<path d="M117,165.7h2.7l0,0c2.2,0,4,1.8,4,4v2.7l0,0c0,2.2-1.8,4-4,4H117l0,0c-2.2,0-4-1.8-4-4v-2.7l0,0
			C113,167.5,114.8,165.7,117,165.7z"/>
	</g>
	<g>
		<path d="M0,0"/>
		<path d="M150.6,169.8L150.6,169.8L150.6,169.8c0.7,0,1.3,0.6,1.3,1.3l0,0l0,0c0,0.7-0.6,1.3-1.3,1.3l0,0l0,0
			c-0.7,0-1.3-0.6-1.3-1.3l0,0l0,0C149.3,170.4,149.9,169.8,150.6,169.8z"/>
	</g>
	<g>
		<path d="M0,0"/>
		<path d="M157.4,165.5h2.9l0,0c2.2,0,4,1.8,4,4v2.9l0,0c0,2.2-1.8,4-4,4h-2.9l0,0c-2.2,0-4-1.8-4-4v-2.9l0,0
			C153.4,167.3,155.2,165.5,157.4,165.5z"/>
	</g>
	<g>
		<path d="M0,0"/>
		<path d="M180.9,164.9h2.9l0,0c2.2,0,4,1.8,4,4v2.9l0,0c0,2.2-1.8,4-4,4h-2.9l0,0c-2.2,0-4-1.8-4-4v-2.9l0,0
			C176.9,166.7,178.7,164.9,180.9,164.9z"/>
	</g>
	<g>
		<path d="M0,0"/>
		<path d="M188.9,164.7h3.7l0,0c2.2,0,4,1.8,4,4v3.7l0,0c0,2.2-1.8,4-4,4h-3.7l0,0c-2.2,0-4-1.8-4-4v-3.7l0,0
			C184.9,166.5,186.7,164.7,188.9,164.7z"/>
	</g>
	<g>
		<path d="M0,0"/>
		<path d="M198.1,166.3h1.8l0,0c2.2,0,4,1.8,4,4v1.8l0,0c0,2.2-1.8,4-4,4h-1.8l0,0c-2.2,0-4-1.8-4-4v-1.8l0,0
			C194.1,168.1,195.8,166.3,198.1,166.3z"/>
	</g>
	<g>
		<path d="M0,0"/>
		<path d="M10,173.4h3.4l0,0c2.2,0,4,1.8,4,4l0,0v3.4l0,0c0,2.2-1.8,4-4,4h0H10l0,0c-2.2,0-4-1.8-4-4v-3.4l0,0
			C6,175.2,7.8,173.4,10,173.4z"/>
	</g>
	<g>
		<path d="M0,0"/>
		<path d="M18.5,174.9L18.5,174.9L18.5,174.9c1.5,0,2.7,1.2,2.7,2.7l0,0l0,0l0,0c0,1.5-1.2,2.7-2.7,2.7l0,0l0,0l0,0
			c-1.5,0-2.7-1.2-2.7-2.7l0,0l0,0l0,0C15.8,176.1,17,174.9,18.5,174.9L18.5,174.9z"/>
	</g>
	<g>
		<path d="M0,0"/>
		<path d="M25.6,172.1h3.6l0,0c2.2,0,4,1.8,4,4v3.6l0,0c0,2.2-1.8,4-4,4h-3.6l0,0c-2.2,0-4-1.8-4-4v-3.6l0,0
			C21.6,173.9,23.4,172.1,25.6,172.1z"/>
	</g>
	<g>
		<path d="M0,0"/>
		<path d="M34,174.2h2l0,0c2.2,0,4,1.8,4,4v2l0,0c0,2.2-1.8,4-4,4h-2l0,0c-2.2,0-4-1.8-4-4v-2l0,0C30,176,31.8,174.2,34,174.2z"/>
	</g>
	<g>
		<path d="M0,0"/>
		<path d="M58.7,173.5h0.8l0,0c2.2,0,4,1.8,4,4v0.8l0,0c0,2.2-1.8,4-4,4h-0.8l0,0c-2.2,0-4-1.8-4-4v-0.8l0,0
			C54.7,175.2,56.5,173.5,58.7,173.5z"/>
	</g>
	<g>
		<path d="M0,0"/>
		<path d="M66.5,173.7H69l0,0c2.2,0,4,1.8,4,4v2.5l0,0c0,2.2-1.8,4-4,4h-2.5l0,0c-2.2,0-4-1.8-4-4v-2.5l0,0
			C62.5,175.5,64.3,173.7,66.5,173.7z"/>
	</g>
	<g>
		<path d="M0,0"/>
		<path d="M74.2,174.6h1.7l0,0c2.2,0,4,1.8,4,4v1.7l0,0c0,2.2-1.8,4-4,4h-1.7l0,0c-2.2,0-4-1.8-4-4v-1.7l0,0
			C70.2,176.4,72,174.6,74.2,174.6z"/>
	</g>
	<g>
		<path d="M0,0"/>
		<path d="M82.7,178L82.7,178L82.7,178c0.2,0,0.3,0.1,0.3,0.3l0,0l0,0l0,0c0,0.2-0.1,0.3-0.3,0.3l0,0l0,0c-0.2,0-0.3-0.1-0.3-0.3
			l0,0l0,0C82.4,178.2,82.5,178,82.7,178L82.7,178z"/>
	</g>
	<g>
		<path d="M0,0"/>
		<path d="M137,172.7h4l0,0c2.2,0,4,1.8,4,4v4l0,0c0,2.2-1.8,4-4,4h-4l0,0c-2.2,0-4-1.8-4-4v-4l0,0C133,174.5,134.8,172.7,137,172.7
			z"/>
	</g>
	<g>
		<path d="M0,0"/>
		<path d="M146.5,178.4L146.5,178.4L146.5,178.4c0.3,0,0.5,0.2,0.5,0.5l0,0l0,0l0,0c0,0.3-0.2,0.5-0.5,0.5l0,0l0,0l0,0
			c-0.3,0-0.5-0.2-0.5-0.5l0,0l0,0l0,0C146.1,178.6,146.3,178.4,146.5,178.4L146.5,178.4z"/>
	</g>
	<g>
		<path d="M0,0"/>
		<path d="M162.4,177.4L162.4,177.4L162.4,177.4c0.9,0,1.7,0.8,1.7,1.7l0,0l0,0c0,0.9-0.8,1.7-1.7,1.7l0,0l0,0
			c-0.9,0-1.7-0.8-1.7-1.7l0,0l0,0C160.7,178.1,161.4,177.4,162.4,177.4z"/>
	</g>
	<g>
		<path d="M0,0"/>
		<path d="M170.9,175.1L170.9,175.1L170.9,175.1c1.8,0,3.2,1.4,3.2,3.2l0,0l0,0c0,1.8-1.4,3.2-3.2,3.2l0,0l0,0
			c-1.8,0-3.2-1.4-3.2-3.2l0,0l0,0C167.7,176.6,169.1,175.1,170.9,175.1z"/>
	</g>
	<g>
		<path d="M0,0"/>
		<path d="M177.9,173.7h2.9l0,0c2.2,0,4,1.8,4,4v2.9l0,0c0,2.2-1.8,4-4,4h-2.9l0,0c-2.2,0-4-1.8-4-4v-2.9l0,0
			C173.9,175.5,175.7,173.7,177.9,173.7z"/>
	</g>
	<g>
		<path d="M0,0"/>
		<path d="M185.3,172.7h3.4l0,0c2.2,0,4,1.8,4,4v3.4l0,0c0,2.2-1.8,4-4,4h-3.4l0,0c-2.2,0-4-1.8-4-4v-3.4l0,0
			C181.3,174.5,183.1,172.7,185.3,172.7z"/>
	</g>
	<g>
		<path d="M0,0"/>
		<path d="M193,174.7h1.8l0,0c2.2,0,4,1.8,4,4v1.8l0,0c0,2.2-1.8,4-4,4H193l0,0c-2.2,0-4-1.8-4-4v-1.8l0,0
			C189,176.5,190.7,174.7,193,174.7z"/>
	</g>
	<g>
		<path d="M0,0"/>
		<path d="M5.6,181.6H9l0,0c2.2,0,4,1.8,4,4v3.4l0,0c0,2.2-1.8,4-4,4H5.6l0,0c-2.2,0-4-1.8-4-4v-3.4l0,0
			C1.6,183.4,3.4,181.6,5.6,181.6z"/>
	</g>
	<g>
		<path d="M0,0"/>
		<path d="M13.5,181.9h1.8l0,0c2.2,0,4,1.8,4,4v1.8l0,0c0,2.2-1.8,4-4,4h-1.8l0,0c-2.2,0-4-1.8-4-4v-1.8l0,0
			C9.5,183.7,11.3,181.9,13.5,181.9z"/>
	</g>
	<g>
		<path d="M0,0"/>
		<path d="M22.4,182.2h0.3l0,0c2.2,0,4,1.8,4,4v0.3l0,0c0,2.2-1.8,4-4,4h-0.3l0,0c-2.2,0-4-1.8-4-4v-0.3l0,0
			C18.4,184,20.2,182.2,22.4,182.2z"/>
	</g>
	<g>
		<path d="M0,0"/>
		<path d="M30.4,182.6h1.3l0,0c2.2,0,4,1.8,4,4v1.3l0,0c0,2.2-1.8,4-4,4h-1.3l0,0c-2.2,0-4-1.8-4-4v-1.3l0,0
			C26.4,184.4,28.2,182.6,30.4,182.6z"/>
	</g>
	<g>
		<path d="M0,0"/>
		<path d="M37.1,181.1h3.8l0,0c2.2,0,4,1.8,4,4v3.8l0,0c0,2.2-1.8,4-4,4h-3.8l0,0c-2.2,0-4-1.8-4-4v-3.8l0,0
			C33.1,182.9,34.9,181.1,37.1,181.1z"/>
	</g>
	<g>
		<path d="M0,0"/>
		<path d="M45.7,182.5h1.1l0,0c2.2,0,4,1.8,4,4v1.1l0,0c0,2.2-1.8,4-4,4h-1.1l0,0c-2.2,0-4-1.8-4-4v-1.1l0,0
			C41.7,184.3,43.4,182.5,45.7,182.5z"/>
	</g>
	<g>
		<path d="M0,0"/>
		<path d="M84.7,180.8h3.6l0,0c2.2,0,4,1.8,4,4v3.6l0,0c0,2.2-1.8,4-4,4h-3.6l0,0c-2.2,0-4-1.8-4-4v-3.6l0,0
			C80.7,182.6,82.5,180.8,84.7,180.8z"/>
	</g>
	<g>
		<path d="M0,0"/>
		<path d="M94.2,181.9h2.5l0,0c2.2,0,4,1.8,4,4v2.5l0,0c0,2.2-1.8,4-4,4h-2.5l0,0c-2.2,0-4-1.8-4-4v-2.5l0,0
			C90.2,183.7,92,181.9,94.2,181.9z"/>
	</g>
	<g>
		<path d="M0,0"/>
		<path d="M101.4,182.2h2.8l0,0c2.2,0,4,1.8,4,4v2.8l0,0c0,2.2-1.8,4-4,4h-2.8l0,0c-2.2,0-4-1.8-4-4v-2.8l0,0
			C97.4,184,99.2,182.2,101.4,182.2z"/>
	</g>
	<g>
		<path d="M0,0"/>
		<path d="M110.1,181.4h0.7l0,0c2.2,0,4,1.8,4,4v0.7l0,0c0,2.2-1.8,4-4,4h-0.7l0,0c-2.2,0-4-1.8-4-4v-0.7l0,0
			C106.1,183.2,107.9,181.4,110.1,181.4z"/>
	</g>
	<g>
		<path d="M0,0"/>
		<path d="M117,181.8h2.9l0,0c2.2,0,4,1.8,4,4v2.9l0,0c0,2.2-1.8,4-4,4H117l0,0c-2.2,0-4-1.8-4-4v-2.9l0,0
			C113,183.6,114.8,181.8,117,181.8z"/>
	</g>
	<g>
		<path d="M0,0"/>
		<path d="M127.5,183.4L127.5,183.4L127.5,183.4c1.6,0,3,1.3,3,3l0,0l0,0c0,1.6-1.3,3-3,3l0,0l0,0c-1.6,0-3-1.3-3-3l0,0l0,0
			C124.5,184.8,125.9,183.4,127.5,183.4z"/>
	</g>
	<g>
		<path d="M0,0"/>
		<path d="M134.4,187.3L134.4,187.3L134.4,187.3c0.2,0,0.3,0.1,0.3,0.3l0,0l0,0c0,0.2-0.1,0.3-0.3,0.3l0,0l0,0
			c-0.2,0-0.3-0.1-0.3-0.3l0,0l0,0C134.2,187.5,134.3,187.3,134.4,187.3z"/>
	</g>
	<g>
		<path d="M0,0"/>
		<path d="M158.6,183.3L158.6,183.3L158.6,183.3c1.8,0,3.3,1.5,3.3,3.3l0,0l0,0l0,0c0,1.8-1.5,3.3-3.3,3.3l0,0l0,0
			c-1.8,0-3.3-1.5-3.3-3.3l0,0l0,0C155.2,184.8,156.7,183.3,158.6,183.3L158.6,183.3z"/>
	</g>
	<g>
		<path d="M0,0"/>
		<path d="M165.1,181.9h4l0,0c2.2,0,4,1.8,4,4v4l0,0c0,2.2-1.8,4-4,4h-4l0,0c-2.2,0-4-1.8-4-4v-4l0,0
			C161.1,183.7,162.9,181.9,165.1,181.9z"/>
	</g>
	<g>
		<path d="M0,0"/>
		<path d="M173.5,181.7h2.2l0,0c2.2,0,4,1.8,4,4v2.2l0,0c0,2.2-1.8,4-4,4h-2.2l0,0c-2.2,0-4-1.8-4-4v-2.2l0,0
			C169.5,183.5,171.3,181.7,173.5,181.7z"/>
	</g>
	<g>
		<path d="M0,0"/>
		<path d="M181.2,180.7h3.5l0,0c2.2,0,4,1.8,4,4v3.5l0,0c0,2.2-1.8,4-4,4h-3.5l0,0c-2.2,0-4-1.8-4-4v-3.5l0,0
			C177.2,182.5,179,180.7,181.2,180.7z"/>
	</g>
	<g>
		<path d="M0,0"/>
		<path d="M189.9,181.9h1.9l0,0c2.2,0,4,1.8,4,4v1.9l0,0c0,2.2-1.8,4-4,4h-1.9l0,0c-2.2,0-4-1.8-4-4v-1.9l0,0
			C185.9,183.7,187.7,181.9,189.9,181.9z"/>
	</g>
	<g>
		<path d="M0,0"/>
		<path d="M198.3,185.2L198.3,185.2L198.3,185.2c0.9,0,1.6,0.7,1.6,1.6l0,0l0,0l0,0c0,0.9-0.7,1.6-1.6,1.6l0,0l0,0l0,0
			c-0.9,0-1.6-0.7-1.6-1.6l0,0l0,0l0,0C196.7,186,197.4,185.2,198.3,185.2L198.3,185.2z"/>
	</g>
	<g>
		<path d="M0,0"/>
		<path d="M2.2,189.1h2.2l0,0c2.2,0,4,1.8,4,4v2.2l0,0c0,2.2-1.8,4-4,4H2.2l0,0c-2.2,0-4-1.8-4-4v-2.2l0,0
			C-1.8,190.8,0,189.1,2.2,189.1z"/>
	</g>
	<g>
		<path d="M0,0"/>
		<path d="M9.3,189.6h3.7l0,0c2.2,0,4,1.8,4,4v3.7l0,0c0,2.2-1.8,4-4,4H9.3l0,0c-2.2,0-4-1.8-4-4v-3.7l0,0
			C5.3,191.4,7.1,189.6,9.3,189.6z"/>
	</g>
	<g>
		<path d="M0,0"/>
		<path d="M18.3,191.7L18.3,191.7L18.3,191.7c2.3,0,4.1,1.8,4.1,4v0.1l0,0c0,2.2-1.8,4-4,4h-0.1l0,0c-2.2,0-4-1.8-4-4v-0.1l0,0
			C14.3,193.5,16.1,191.7,18.3,191.7z"/>
	</g>
	<g>
		<path d="M0,0"/>
		<path d="M26.7,190.7h0.8l0,0c2.2,0,4,1.8,4,4v0.8l0,0c0,2.2-1.8,4-4,4h-0.8l0,0c-2.2,0-4-1.8-4-4v-0.8l0,0
			C22.7,192.5,24.4,190.7,26.7,190.7z"/>
	</g>
	<g>
		<path d="M0,0"/>
		<path d="M35.1,191.2L35.1,191.2L35.1,191.2c1.9,0,3.4,1.5,3.4,3.4l0,0l0,0c0,1.9-1.5,3.4-3.4,3.4l0,0l0,0l0,0
			c-1.9,0-3.4-1.5-3.4-3.4l0,0l0,0l0,0C31.6,192.8,33.2,191.2,35.1,191.2z"/>
	</g>
	<g>
		<path d="M0,0"/>
		<path d="M40.6,188.9h3.8l0,0c2.2,0,4,1.8,4,4v3.8l0,0c0,2.2-1.8,4-4,4h-3.8l0,0c-2.2,0-4-1.8-4-4v-3.8l0,0
			C36.6,190.7,38.4,188.9,40.6,188.9z"/>
	</g>
	<g>
		<path d="M0,0"/>
		<path d="M49.8,191.7L49.8,191.7L49.8,191.7c2.1,0,3.9,1.7,3.9,3.9l0,0l0,0c0,2.1-1.7,3.9-3.9,3.9l0,0l0,0l0,0
			c-2.1,0-3.9-1.7-3.9-3.9l0,0l0,0l0,0C45.9,193.4,47.7,191.7,49.8,191.7z"/>
	</g>
	<g>
		<path d="M0,0"/>
		<path d="M57.4,189.5h3.2l0,0c2.2,0,4,1.8,4,4v3.2l0,0c0,2.2-1.8,4-4,4h-3.2l0,0c-2.2,0-4-1.8-4-4v-3.2l0,0
			C53.4,191.3,55.2,189.5,57.4,189.5z"/>
	</g>
	<g>
		<path d="M0,0"/>
		<path d="M115.6,195.1L115.6,195.1L115.6,195.1C115.7,195.1,115.7,195.1,115.6,195.1L115.6,195.1L115.6,195.1c0.1,0.1,0,0.1,0,0.1
			l0,0l0,0C115.6,195.2,115.6,195.2,115.6,195.1L115.6,195.1L115.6,195.1C115.6,195.1,115.6,195.1,115.6,195.1z"/>
	</g>
	<g>
		<path d="M0,0"/>
		<path d="M130.7,193L130.7,193L130.7,193c1.3,0,2.3,1,2.3,2.3l0,0l0,0l0,0c0,1.3-1,2.3-2.3,2.3l0,0l0,0c-1.3,0-2.3-1-2.3-2.3l0,0
			l0,0C128.4,194.1,129.4,193,130.7,193L130.7,193z"/>
	</g>
	<g>
		<path d="M0,0"/>
		<path d="M144.7,189.4h3.2l0,0c2.2,0,4,1.8,4,4v3.2l0,0c0,2.2-1.8,4-4,4h-3.2l0,0c-2.2,0-4-1.8-4-4v-3.2l0,0
			C140.7,191.2,142.4,189.4,144.7,189.4z"/>
	</g>
	<g>
		<path d="M0,0"/>
		<path d="M153.3,189.1h3.1l0,0c2.2,0,4,1.8,4,4v3.1l0,0c0,2.2-1.8,4-4,4h-3.1l0,0c-2.2,0-4-1.8-4-4v-3.1l0,0
			C149.3,190.9,151.1,189.1,153.3,189.1z"/>
	</g>
	<g>
		<path d="M0,0"/>
		<path d="M160.8,189.6h3.9l0,0c2.2,0,4,1.8,4,4v3.9l0,0c0,2.2-1.8,4-4,4h-3.9l0,0c-2.2,0-4-1.8-4-4v-3.9l0,0
			C156.8,191.4,158.6,189.6,160.8,189.6z"/>
	</g>
	<g>
		<path d="M0,0"/>
		<path d="M169.3,189.4h3.7l0,0c2.2,0,4,1.8,4,4v3.7l0,0c0,2.2-1.8,4-4,4h-3.7l0,0c-2.2,0-4-1.8-4-4v-3.7l0,0
			C165.3,191.2,167.1,189.4,169.3,189.4z"/>
	</g>
	<g>
		<path d="M0,0"/>
		<path d="M176.8,189.5h3.7l0,0c2.2,0,4,1.8,4,4v3.7l0,0c0,2.2-1.8,4-4,4h-3.7l0,0c-2.2,0-4-1.8-4-4v-3.7l0,0
			C172.8,191.2,174.5,189.5,176.8,189.5z"/>
	</g>
	<g>
		<path d="M0,0"/>
		<path d="M184.9,189.3h4l0,0c2.2,0,4,1.8,4,4v4l0,0c0,2.2-1.8,4-4,4h-4l0,0c-2.2,0-4-1.8-4-4v-4l0,0
			C180.9,191.1,182.7,189.3,184.9,189.3z"/>
	</g>
	<g>
		<path d="M0,0"/>
		<path d="M194.6,191h1.5l0,0c2.2,0,4,1.8,4,4v1.5l0,0c0,2.2-1.8,4-4,4h-1.5l0,0c-2.2,0-4-1.8-4-4V195l0,0
			C190.6,192.8,192.4,191,194.6,191z"/>
	</g>
	<g>
		<path d="M0,0"/>
		<path d="M5.6,197.3h2.5l0,0c2.2,0,4,1.8,4,4v2.5l0,0c0,2.2-1.8,4-4,4H5.6l0,0c-2.2,0-4-1.8-4-4v-2.5l0,0
			C1.6,199.1,3.4,197.3,5.6,197.3z"/>
	</g>
	<g>
		<path d="M0,0"/>
		<path d="M14.6,198.3h1.3l0,0c2.2,0,4,1.8,4,4v1.3l0,0c0,2.2-1.8,4-4,4h-1.3l0,0c-2.2,0-4-1.8-4-4v-1.3l0,0
			C10.6,200,12.4,198.3,14.6,198.3z"/>
	</g>
	<g>
		<path d="M0,0"/>
		<path d="M31.2,200.2L31.2,200.2L31.2,200.2c1.2,0,2.2,1,2.2,2.2l0,0l0,0c0,1.2-1,2.2-2.2,2.2l0,0l0,0c-1.2,0-2.2-1-2.2-2.2l0,0
			l0,0l0,0C29,201.2,30,200.2,31.2,200.2L31.2,200.2z"/>
	</g>
	<g>
		<path d="M0,0"/>
		<path d="M60.7,196.6h3.9l0,0c2.2,0,4,1.8,4,4v3.9l0,0c0,2.2-1.8,4-4,4h-3.9l0,0c-2.2,0-4-1.8-4-4v-3.9l0,0
			C56.7,198.4,58.5,196.6,60.7,196.6z"/>
	</g>
	<g>
		<path d="M0,0"/>
		<path d="M77.1,197h3.4l0,0c2.2,0,4,1.8,4,4v3.4l0,0c0,2.2-1.8,4-4,4h-3.4l0,0c-2.2,0-4-1.8-4-4V201l0,0
			C73.1,198.8,74.8,197,77.1,197z"/>
	</g>
	<g>
		<path d="M0,0"/>
		<path d="M126.1,197.3h2.9l0,0c2.2,0,4,1.8,4,4v2.9l0,0c0,2.2-1.8,4-4,4h-2.9l0,0c-2.2,0-4-1.8-4-4v-2.9l0,0
			C122.1,199.1,123.9,197.3,126.1,197.3z"/>
	</g>
	<g>
		<path d="M0,0"/>
		<path d="M132.1,196.2h3.8l0,0c2.2,0,4,1.8,4,4v3.8l0,0c0,2.2-1.8,4-4,4h-3.8l0,0c-2.2,0-4-1.8-4-4v-3.8l0,0
			C128.1,198,129.9,196.2,132.1,196.2z"/>
	</g>
	<g>
		<path d="M0,0"/>
		<path d="M140.9,196.5h3.4l0,0c2.2,0,4,1.8,4,4v3.4l0,0c0,2.2-1.8,4-4,4h-3.4l0,0c-2.2,0-4-1.8-4-4v-3.4l0,0
			C136.9,198.3,138.7,196.5,140.9,196.5z"/>
	</g>
	<g>
		<path d="M0,0"/>
		<path d="M158.1,197h1.5l0,0c2.2,0,4,1.8,4,4v1.5l0,0c0,2.2-1.8,4-4,4h-1.5l0,0c-2.2,0-4-1.8-4-4V201l0,0
			C154.1,198.8,155.9,197,158.1,197z"/>
	</g>
	<g>
		<path d="M0,0"/>
		<path d="M166.4,198.5h0.3l0,0c2.2,0,4,1.8,4,4v0.3l0,0c0,2.2-1.8,4-4,4h-0.3l0,0c-2.2,0-4-1.8-4-4v-0.3l0,0
			C162.4,200.3,164.2,198.5,166.4,198.5z"/>
	</g>
	<g>
		<path d="M0,0"/>
		<path d="M182.2,197.8h1.5l0,0c2.2,0,4,1.8,4,4v1.5l0,0c0,2.2-1.8,4-4,4h-1.5l0,0c-2.2,0-4-1.8-4-4v-1.5l0,0
			C178.2,199.6,180,197.8,182.2,197.8z"/>
	</g>
	<g>
		<path d="M0,0"/>
		<path d="M189.9,197h2.5l0,0c2.2,0,4,1.8,4,4v2.5l0,0c0,2.2-1.8,4-4,4h-2.5l0,0c-2.2,0-4-1.8-4-4V201l0,0
			C185.9,198.8,187.7,197,189.9,197z"/>
	</g>
	<g>
		<path d="M0,0"/>
		<path d="M197.5,196.5h3.9l0,0c2.2,0,4,1.8,4,4v3.9l0,0c0,2.2-1.8,4-4,4h-3.9l0,0c-2.2,0-4-1.8-4-4v-3.9l0,0
			C193.5,198.3,195.3,196.5,197.5,196.5z"/>
	</g>
</g>
</svg>
